<svg width="1076" height="899" viewBox="0 0 1076 899" fill="none" xmlns="http://www.w3.org/2000/svg">
<g clip-path="url(#clip0_31_75)">
<rect width="1076" height="899" fill="url(#paint0_linear_31_75)"/>
<path d="M187.149 796.703C188.242 792.812 193.758 792.812 194.851 796.703L196.29 801.823C196.803 803.65 198.53 804.865 200.424 804.731L204.235 804.461C208.6 804.151 210.221 810.071 206.307 812.028L204.591 812.886C202.605 813.879 201.808 816.301 202.816 818.28L204.104 820.806C206.007 824.54 201.614 828.316 198.208 825.872L193.332 822.373C191.938 821.373 190.062 821.373 188.668 822.373L183.792 825.872C180.387 828.316 175.993 824.54 177.896 820.806L179.184 818.28C180.192 816.301 179.395 813.879 177.409 812.886L175.693 812.028C171.779 810.071 173.4 804.151 177.765 804.461L181.576 804.731C183.47 804.865 185.197 803.65 185.71 801.823L187.149 796.703Z" fill="#F7F2CF"/>
<path d="M5.14917 874.703C6.24248 870.812 11.7575 870.812 12.8508 874.703L14.2898 879.823C14.8033 881.65 16.5303 882.865 18.4236 882.731L22.2347 882.461C26.6005 882.151 28.2212 888.071 24.3065 890.028L22.5914 890.886C20.6048 891.879 19.8078 894.301 20.8163 896.28L22.1035 898.806C24.0069 902.54 19.6135 906.316 16.2077 903.872L11.3319 900.373C9.93816 899.373 8.06185 899.373 6.66806 900.373L1.7923 903.872C-1.6135 906.316 -6.00688 902.54 -4.10354 898.806L-2.81634 896.28C-1.8078 894.301 -2.60476 891.879 -4.59143 890.886L-6.30651 890.028C-10.2212 888.071 -8.60045 882.151 -4.23475 882.461L-0.423573 882.731C1.46974 882.865 3.19672 881.65 3.71023 879.823L5.14917 874.703Z" fill="#FDFAFA"/>
<path d="M316.149 303.703C317.242 299.812 322.758 299.812 323.851 303.703L325.29 308.823C325.803 310.65 327.53 311.865 329.424 311.731L333.235 311.461C337.6 311.151 339.221 317.071 335.307 319.028L333.591 319.886C331.605 320.879 330.808 323.301 331.816 325.28L333.104 327.806C335.007 331.54 330.614 335.316 327.208 332.872L322.332 329.373C320.938 328.373 319.062 328.373 317.668 329.373L312.792 332.872C309.387 335.316 304.993 331.54 306.896 327.806L308.184 325.28C309.192 323.301 308.395 320.879 306.409 319.886L304.693 319.028C300.779 317.071 302.4 311.151 306.765 311.461L310.576 311.731C312.47 311.865 314.197 310.65 314.71 308.823L316.149 303.703Z" fill="#F7F2CF"/>
<path d="M74.1492 275.703C75.2425 271.812 80.7575 271.812 81.8508 275.703L83.2898 280.823C83.8033 282.65 85.5303 283.865 87.4236 283.731L91.2347 283.461C95.6005 283.151 97.2212 289.071 93.3065 291.028L91.5914 291.886C89.6048 292.879 88.8078 295.301 89.8163 297.28L91.1035 299.806C93.0069 303.54 88.6135 307.316 85.2077 304.872L80.3319 301.373C78.9382 300.373 77.0618 300.373 75.6681 301.373L70.7923 304.872C67.3865 307.316 62.9931 303.54 64.8965 299.806L66.1837 297.28C67.1922 295.301 66.3952 292.879 64.4086 291.886L62.6935 291.028C58.7788 289.071 60.3996 283.151 64.7653 283.461L68.5764 283.731C70.4697 283.865 72.1967 282.65 72.7102 280.823L74.1492 275.703Z" fill="#FBF0F6"/>
<path d="M293.149 107.703C294.242 103.812 299.758 103.812 300.851 107.703L302.29 112.823C302.803 114.65 304.53 115.865 306.424 115.731L310.235 115.461C314.6 115.151 316.221 121.071 312.307 123.028L310.591 123.886C308.605 124.879 307.808 127.301 308.816 129.28L310.104 131.806C312.007 135.54 307.614 139.316 304.208 136.872L299.332 133.373C297.938 132.373 296.062 132.373 294.668 133.373L289.792 136.872C286.387 139.316 281.993 135.54 283.896 131.806L285.184 129.28C286.192 127.301 285.395 124.879 283.409 123.886L281.693 123.028C277.779 121.071 279.4 115.151 283.765 115.461L287.576 115.731C289.47 115.865 291.197 114.65 291.71 112.823L293.149 107.703Z" fill="#F7F2CF"/>
<path d="M130.149 508.703C131.242 504.812 136.758 504.812 137.851 508.703L139.29 513.823C139.803 515.65 141.53 516.865 143.424 516.731L147.235 516.461C151.6 516.151 153.221 522.071 149.307 524.028L147.591 524.886C145.605 525.879 144.808 528.301 145.816 530.28L147.104 532.806C149.007 536.54 144.614 540.316 141.208 537.872L136.332 534.373C134.938 533.373 133.062 533.373 131.668 534.373L126.792 537.872C123.387 540.316 118.993 536.54 120.896 532.806L122.184 530.28C123.192 528.301 122.395 525.879 120.409 524.886L118.693 524.028C114.779 522.071 116.4 516.151 120.765 516.461L124.576 516.731C126.47 516.865 128.197 515.65 128.71 513.823L130.149 508.703Z" fill="#FDFAFA"/>
<path d="M-3.85083 660.703C-2.75752 656.812 2.75752 656.812 3.85083 660.703L5.28977 665.823C5.80328 667.65 7.53026 668.865 9.42357 668.731L13.2347 668.461C17.6005 668.151 19.2212 674.071 15.3065 676.028L13.5914 676.886C11.6048 677.879 10.8078 680.301 11.8163 682.28L13.1035 684.806C15.0069 688.54 10.6135 692.316 7.20771 689.872L2.33194 686.373C0.938157 685.373 -0.938154 685.373 -2.33194 686.373L-7.2077 689.872C-10.6135 692.316 -15.0069 688.54 -13.1035 684.806L-11.8163 682.28C-10.8078 680.301 -11.6048 677.879 -13.5914 676.886L-15.3065 676.028C-19.2212 674.071 -17.6004 668.151 -13.2347 668.461L-9.42357 668.731C-7.53026 668.865 -5.80328 667.65 -5.28977 665.823L-3.85083 660.703Z" fill="#F7F2CF"/>
<path d="M646.149 274.703C647.242 270.812 652.758 270.812 653.851 274.703L655.29 279.823C655.803 281.65 657.53 282.865 659.424 282.731L663.235 282.461C667.6 282.151 669.221 288.071 665.307 290.028L663.591 290.886C661.605 291.879 660.808 294.301 661.816 296.28L663.104 298.806C665.007 302.54 660.614 306.316 657.208 303.872L652.332 300.373C650.938 299.373 649.062 299.373 647.668 300.373L642.792 303.872C639.387 306.316 634.993 302.54 636.896 298.806L638.184 296.28C639.192 294.301 638.395 291.879 636.409 290.886L634.693 290.028C630.779 288.071 632.4 282.151 636.765 282.461L640.576 282.731C642.47 282.865 644.197 281.65 644.71 279.823L646.149 274.703Z" fill="#FBF0F6"/>
<path d="M701.149 -5.2972C702.242 -9.18762 707.758 -9.18763 708.851 -5.2972L710.29 -0.176874C710.803 1.65041 712.53 2.8652 714.424 2.73093L718.235 2.46064C722.6 2.15101 724.221 8.07112 720.307 10.0284L718.591 10.8859C716.605 11.8792 715.808 14.3008 716.816 16.2798L718.104 18.8056C720.007 22.5404 715.614 26.3156 712.208 23.8718L707.332 20.3733C705.938 19.3732 704.062 19.3732 702.668 20.3733L697.792 23.8718C694.387 26.3156 689.993 22.5404 691.896 18.8056L693.184 16.2798C694.192 14.3008 693.395 11.8792 691.409 10.8859L689.693 10.0284C685.779 8.07112 687.4 2.15101 691.765 2.46064L695.576 2.73093C697.47 2.8652 699.197 1.65041 699.71 -0.176871L701.149 -5.2972Z" fill="#F7F2CF"/>
<path d="M60.1492 13.7028C61.2425 9.81238 66.7575 9.81237 67.8508 13.7028L69.2898 18.8231C69.8033 20.6504 71.5303 21.8652 73.4236 21.7309L77.2347 21.4606C81.6005 21.151 83.2212 27.0711 79.3065 29.0284L77.5914 29.8859C75.6048 30.8792 74.8078 33.3008 75.8163 35.2798L77.1035 37.8056C79.0069 41.5404 74.6135 45.3156 71.2077 42.8718L66.3319 39.3733C64.9382 38.3732 63.0618 38.3732 61.6681 39.3733L56.7923 42.8718C53.3865 45.3156 48.9931 41.5404 50.8965 37.8056L52.1837 35.2798C53.1922 33.3008 52.3952 30.8792 50.4086 29.8859L48.6935 29.0284C44.7788 27.0711 46.3996 21.151 50.7653 21.4606L54.5764 21.7309C56.4697 21.8652 58.1967 20.6504 58.7102 18.8231L60.1492 13.7028Z" fill="#F7F2CF"/>
<path d="M730.149 500.703C731.242 496.812 736.758 496.812 737.851 500.703L739.29 505.823C739.803 507.65 741.53 508.865 743.424 508.731L747.235 508.461C751.6 508.151 753.221 514.071 749.307 516.028L747.591 516.886C745.605 517.879 744.808 520.301 745.816 522.28L747.104 524.806C749.007 528.54 744.614 532.316 741.208 529.872L736.332 526.373C734.938 525.373 733.062 525.373 731.668 526.373L726.792 529.872C723.387 532.316 718.993 528.54 720.896 524.806L722.184 522.28C723.192 520.301 722.395 517.879 720.409 516.886L718.693 516.028C714.779 514.071 716.4 508.151 720.765 508.461L724.576 508.731C726.47 508.865 728.197 507.65 728.71 505.823L730.149 500.703Z" fill="#F7F2CF"/>
<path d="M403.149 681.703C404.242 677.812 409.758 677.812 410.851 681.703L412.29 686.823C412.803 688.65 414.53 689.865 416.424 689.731L420.235 689.461C424.6 689.151 426.221 695.071 422.307 697.028L420.591 697.886C418.605 698.879 417.808 701.301 418.816 703.28L420.104 705.806C422.007 709.54 417.614 713.316 414.208 710.872L409.332 707.373C407.938 706.373 406.062 706.373 404.668 707.373L399.792 710.872C396.387 713.316 391.993 709.54 393.896 705.806L395.184 703.28C396.192 701.301 395.395 698.879 393.409 697.886L391.693 697.028C387.779 695.071 389.4 689.151 393.765 689.461L397.576 689.731C399.47 689.865 401.197 688.65 401.71 686.823L403.149 681.703Z" fill="#FBF0F6"/>
<path d="M785.149 854.703C786.242 850.812 791.758 850.812 792.851 854.703L794.29 859.823C794.803 861.65 796.53 862.865 798.424 862.731L802.235 862.461C806.6 862.151 808.221 868.071 804.307 870.028L802.591 870.886C800.605 871.879 799.808 874.301 800.816 876.28L802.104 878.806C804.007 882.54 799.614 886.316 796.208 883.872L791.332 880.373C789.938 879.373 788.062 879.373 786.668 880.373L781.792 883.872C778.387 886.316 773.993 882.54 775.896 878.806L777.184 876.28C778.192 874.301 777.395 871.879 775.409 870.886L773.693 870.028C769.779 868.071 771.4 862.151 775.765 862.461L779.576 862.731C781.47 862.865 783.197 861.65 783.71 859.823L785.149 854.703Z" fill="#FBF0F6"/>
<path d="M1055.15 799.703C1056.24 795.812 1061.76 795.812 1062.85 799.703L1064.29 804.823C1064.8 806.65 1066.53 807.865 1068.42 807.731L1072.23 807.461C1076.6 807.151 1078.22 813.071 1074.31 815.028L1072.59 815.886C1070.6 816.879 1069.81 819.301 1070.82 821.28L1072.1 823.806C1074.01 827.54 1069.61 831.316 1066.21 828.872L1061.33 825.373C1059.94 824.373 1058.06 824.373 1056.67 825.373L1051.79 828.872C1048.39 831.316 1043.99 827.54 1045.9 823.806L1047.18 821.28C1048.19 819.301 1047.4 816.879 1045.41 815.886L1043.69 815.028C1039.78 813.071 1041.4 807.151 1045.77 807.461L1049.58 807.731C1051.47 807.865 1053.2 806.65 1053.71 804.823L1055.15 799.703Z" fill="#F7F2CF"/>
<path d="M1055.15 13.7028C1056.24 9.81238 1061.76 9.81237 1062.85 13.7028L1064.29 18.8231C1064.8 20.6504 1066.53 21.8652 1068.42 21.7309L1072.23 21.4606C1076.6 21.151 1078.22 27.0711 1074.31 29.0284L1072.59 29.8859C1070.6 30.8792 1069.81 33.3008 1070.82 35.2798L1072.1 37.8056C1074.01 41.5404 1069.61 45.3156 1066.21 42.8718L1061.33 39.3733C1059.94 38.3732 1058.06 38.3732 1056.67 39.3733L1051.79 42.8718C1048.39 45.3156 1043.99 41.5404 1045.9 37.8056L1047.18 35.2798C1048.19 33.3008 1047.4 30.8792 1045.41 29.8859L1043.69 29.0284C1039.78 27.0711 1041.4 21.151 1045.77 21.4606L1049.58 21.7309C1051.47 21.8652 1053.2 20.6504 1053.71 18.8231L1055.15 13.7028Z" fill="#FBF0F6"/>
<path d="M900.149 304.703C901.242 300.812 906.758 300.812 907.851 304.703L909.29 309.823C909.803 311.65 911.53 312.865 913.424 312.731L917.235 312.461C921.6 312.151 923.221 318.071 919.307 320.028L917.591 320.886C915.605 321.879 914.808 324.301 915.816 326.28L917.104 328.806C919.007 332.54 914.614 336.316 911.208 333.872L906.332 330.373C904.938 329.373 903.062 329.373 901.668 330.373L896.792 333.872C893.387 336.316 888.993 332.54 890.896 328.806L892.184 326.28C893.192 324.301 892.395 321.879 890.409 320.886L888.693 320.028C884.779 318.071 886.4 312.151 890.765 312.461L894.576 312.731C896.47 312.865 898.197 311.65 898.71 309.823L900.149 304.703Z" fill="#F7F2CF"/>
<path d="M418.149 459.703C419.242 455.812 424.758 455.812 425.851 459.703L427.29 464.823C427.803 466.65 429.53 467.865 431.424 467.731L435.235 467.461C439.6 467.151 441.221 473.071 437.307 475.028L435.591 475.886C433.605 476.879 432.808 479.301 433.816 481.28L435.104 483.806C437.007 487.54 432.614 491.316 429.208 488.872L424.332 485.373C422.938 484.373 421.062 484.373 419.668 485.373L414.792 488.872C411.387 491.316 406.993 487.54 408.896 483.806L410.184 481.28C411.192 479.301 410.395 476.879 408.409 475.886L406.693 475.028C402.779 473.071 404.4 467.151 408.765 467.461L412.576 467.731C414.47 467.865 416.197 466.65 416.71 464.823L418.149 459.703Z" fill="#F7F2CF"/>
<path d="M584.149 107.703C585.242 103.812 590.758 103.812 591.851 107.703L593.29 112.823C593.803 114.65 595.53 115.865 597.424 115.731L601.235 115.461C605.6 115.151 607.221 121.071 603.307 123.028L601.591 123.886C599.605 124.879 598.808 127.301 599.816 129.28L601.104 131.806C603.007 135.54 598.614 139.316 595.208 136.872L590.332 133.373C588.938 132.373 587.062 132.373 585.668 133.373L580.792 136.872C577.387 139.316 572.993 135.54 574.896 131.806L576.184 129.28C577.192 127.301 576.395 124.879 574.409 123.886L572.693 123.028C568.779 121.071 570.4 115.151 574.765 115.461L578.576 115.731C580.47 115.865 582.197 114.65 582.71 112.823L584.149 107.703Z" fill="#F7F2CF"/>
<path d="M388.149 -7.2972C389.242 -11.1876 394.758 -11.1876 395.851 -7.2972L397.29 -2.17687C397.803 -0.349592 399.53 0.865204 401.424 0.730928L405.235 0.460635C409.6 0.151014 411.221 6.07112 407.307 8.02835L405.591 8.88586C403.605 9.87915 402.808 12.3008 403.816 14.2798L405.104 16.8056C407.007 20.5404 402.614 24.3156 399.208 21.8718L394.332 18.3733C392.938 17.3732 391.062 17.3732 389.668 18.3733L384.792 21.8718C381.387 24.3156 376.993 20.5404 378.896 16.8056L380.184 14.2798C381.192 12.3008 380.395 9.87915 378.409 8.88586L376.693 8.02835C372.779 6.07112 374.4 0.151015 378.765 0.460635L382.576 0.730928C384.47 0.865204 386.197 -0.349589 386.71 -2.17687L388.149 -7.2972Z" fill="#FBF0F6"/>
<path d="M845.149 107.703C846.242 103.812 851.758 103.812 852.851 107.703L854.29 112.823C854.803 114.65 856.53 115.865 858.424 115.731L862.235 115.461C866.6 115.151 868.221 121.071 864.307 123.028L862.591 123.886C860.605 124.879 859.808 127.301 860.816 129.28L862.104 131.806C864.007 135.54 859.614 139.316 856.208 136.872L851.332 133.373C849.938 132.373 848.062 132.373 846.668 133.373L841.792 136.872C838.387 139.316 833.993 135.54 835.896 131.806L837.184 129.28C838.192 127.301 837.395 124.879 835.409 123.886L833.693 123.028C829.779 121.071 831.4 115.151 835.765 115.461L839.576 115.731C841.47 115.865 843.197 114.65 843.71 112.823L845.149 107.703Z" fill="#F7F2CF"/>
<path d="M934.149 595.703C935.242 591.812 940.758 591.812 941.851 595.703L943.29 600.823C943.803 602.65 945.53 603.865 947.424 603.731L951.235 603.461C955.6 603.151 957.221 609.071 953.307 611.028L951.591 611.886C949.605 612.879 948.808 615.301 949.816 617.28L951.104 619.806C953.007 623.54 948.614 627.316 945.208 624.872L940.332 621.373C938.938 620.373 937.062 620.373 935.668 621.373L930.792 624.872C927.387 627.316 922.993 623.54 924.896 619.806L926.184 617.28C927.192 615.301 926.395 612.879 924.409 611.886L922.693 611.028C918.779 609.071 920.4 603.151 924.765 603.461L928.576 603.731C930.47 603.865 932.197 602.65 932.71 600.823L934.149 595.703Z" fill="#FBF0F6"/>
<path d="M1064.15 421.703C1065.24 417.812 1070.76 417.812 1071.85 421.703L1073.29 426.823C1073.8 428.65 1075.53 429.865 1077.42 429.731L1081.23 429.461C1085.6 429.151 1087.22 435.071 1083.31 437.028L1081.59 437.886C1079.6 438.879 1078.81 441.301 1079.82 443.28L1081.1 445.806C1083.01 449.54 1078.61 453.316 1075.21 450.872L1070.33 447.373C1068.94 446.373 1067.06 446.373 1065.67 447.373L1060.79 450.872C1057.39 453.316 1052.99 449.54 1054.9 445.806L1056.18 443.28C1057.19 441.301 1056.4 438.879 1054.41 437.886L1052.69 437.028C1048.78 435.071 1050.4 429.151 1054.77 429.461L1058.58 429.731C1060.47 429.865 1062.2 428.65 1062.71 426.823L1064.15 421.703Z" fill="#F7F2CF"/>
<path d="M639.149 718.703C640.242 714.812 645.758 714.812 646.851 718.703L648.29 723.823C648.803 725.65 650.53 726.865 652.424 726.731L656.235 726.461C660.6 726.151 662.221 732.071 658.307 734.028L656.591 734.886C654.605 735.879 653.808 738.301 654.816 740.28L656.104 742.806C658.007 746.54 653.614 750.316 650.208 747.872L645.332 744.373C643.938 743.373 642.062 743.373 640.668 744.373L635.792 747.872C632.387 750.316 627.993 746.54 629.896 742.806L631.184 740.28C632.192 738.301 631.395 735.879 629.409 734.886L627.693 734.028C623.779 732.071 625.4 726.151 629.765 726.461L633.576 726.731C635.47 726.865 637.197 725.65 637.71 723.823L639.149 718.703Z" fill="#F7F2CF"/>
<path d="M433.149 873.703C434.242 869.812 439.758 869.812 440.851 873.703L442.29 878.823C442.803 880.65 444.53 881.865 446.424 881.731L450.235 881.461C454.6 881.151 456.221 887.071 452.307 889.028L450.591 889.886C448.605 890.879 447.808 893.301 448.816 895.28L450.104 897.806C452.007 901.54 447.614 905.316 444.208 902.872L439.332 899.373C437.938 898.373 436.062 898.373 434.668 899.373L429.792 902.872C426.387 905.316 421.993 901.54 423.896 897.806L425.184 895.28C426.192 893.301 425.395 890.879 423.409 889.886L421.693 889.028C417.779 887.071 419.4 881.151 423.765 881.461L427.576 881.731C429.47 881.865 431.197 880.65 431.71 878.823L433.149 873.703Z" fill="#F7F2CF"/>
</g>
<defs>
<linearGradient id="paint0_linear_31_75" x1="538" y1="0" x2="538" y2="899" gradientUnits="userSpaceOnUse">
<stop stop-color="#FFEFD6"/>
<stop offset="1" stop-color="#CC448A"/>
</linearGradient>
<clipPath id="clip0_31_75">
<rect width="1076" height="899" fill="white"/>
</clipPath>
</defs>
</svg>
