<svg width="2740" height="1716" viewBox="0 0 2740 1716" fill="none" xmlns="http://www.w3.org/2000/svg">
<g clip-path="url(#clip0_172_100)">
<rect width="2740" height="1716" fill="url(#paint0_linear_172_100)"/>
<path d="M187.149 796.703C188.242 792.812 193.758 792.812 194.851 796.703L196.29 801.823C196.803 803.65 198.53 804.865 200.424 804.731L204.235 804.461C208.6 804.151 210.221 810.071 206.307 812.028L204.591 812.886C202.605 813.879 201.808 816.301 202.816 818.28L204.104 820.806C206.007 824.54 201.614 828.316 198.208 825.872L193.332 822.373C191.938 821.373 190.062 821.373 188.668 822.373L183.792 825.872C180.387 828.316 175.993 824.54 177.896 820.806L179.184 818.28C180.192 816.301 179.395 813.879 177.409 812.886L175.693 812.028C171.779 810.071 173.4 804.151 177.765 804.461L181.576 804.731C183.47 804.865 185.197 803.65 185.71 801.823L187.149 796.703Z" fill="#F3C9E2"/>
<path d="M1361.15 718.703C1362.24 714.812 1367.76 714.812 1368.85 718.703L1370.29 723.823C1370.8 725.65 1372.53 726.865 1374.42 726.731L1378.23 726.461C1382.6 726.151 1384.22 732.071 1380.31 734.028L1378.59 734.886C1376.6 735.879 1375.81 738.301 1376.82 740.28L1378.1 742.806C1380.01 746.54 1375.61 750.316 1372.21 747.872L1367.33 744.373C1365.94 743.373 1364.06 743.373 1362.67 744.373L1357.79 747.872C1354.39 750.316 1349.99 746.54 1351.9 742.806L1353.18 740.28C1354.19 738.301 1353.4 735.879 1351.41 734.886L1349.69 734.028C1345.78 732.071 1347.4 726.151 1351.77 726.461L1355.58 726.731C1357.47 726.865 1359.2 725.65 1359.71 723.823L1361.15 718.703Z" fill="#F3C9E2"/>
<path d="M5.14917 874.703C6.24248 870.812 11.7575 870.812 12.8508 874.703L14.2898 879.823C14.8033 881.65 16.5303 882.865 18.4236 882.731L22.2347 882.461C26.6005 882.151 28.2212 888.071 24.3065 890.028L22.5914 890.886C20.6048 891.879 19.8078 894.301 20.8163 896.28L22.1035 898.806C24.0069 902.54 19.6135 906.316 16.2077 903.872L11.3319 900.373C9.93816 899.373 8.06185 899.373 6.66806 900.373L1.7923 903.872C-1.6135 906.316 -6.00688 902.54 -4.10354 898.806L-2.81634 896.28C-1.8078 894.301 -2.60476 891.879 -4.59143 890.886L-6.30651 890.028C-10.2212 888.071 -8.60045 882.151 -4.23475 882.461L-0.423573 882.731C1.46974 882.865 3.19672 881.65 3.71023 879.823L5.14917 874.703Z" fill="#CC448A"/>
<path d="M1723.15 876.703C1724.24 872.812 1729.76 872.812 1730.85 876.703L1732.29 881.823C1732.8 883.65 1734.53 884.865 1736.42 884.731L1740.23 884.461C1744.6 884.151 1746.22 890.071 1742.31 892.028L1740.59 892.886C1738.6 893.879 1737.81 896.301 1738.82 898.28L1740.1 900.806C1742.01 904.54 1737.61 908.316 1734.21 905.872L1729.33 902.373C1727.94 901.373 1726.06 901.373 1724.67 902.373L1719.79 905.872C1716.39 908.316 1711.99 904.54 1713.9 900.806L1715.18 898.28C1716.19 896.301 1715.4 893.879 1713.41 892.886L1711.69 892.028C1707.78 890.071 1709.4 884.151 1713.77 884.461L1717.58 884.731C1719.47 884.865 1721.2 883.65 1721.71 881.823L1723.15 876.703Z" fill="#F3C9E2"/>
<path d="M316.149 303.703C317.242 299.812 322.758 299.812 323.851 303.703L325.29 308.823C325.803 310.65 327.53 311.865 329.424 311.731L333.235 311.461C337.6 311.151 339.221 317.071 335.307 319.028L333.591 319.886C331.605 320.879 330.808 323.301 331.816 325.28L333.104 327.806C335.007 331.54 330.614 335.316 327.208 332.872L322.332 329.373C320.938 328.373 319.062 328.373 317.668 329.373L312.792 332.872C309.387 335.316 304.993 331.54 306.896 327.806L308.184 325.28C309.192 323.301 308.395 320.879 306.409 319.886L304.693 319.028C300.779 317.071 302.4 311.151 306.765 311.461L310.576 311.731C312.47 311.865 314.197 310.65 314.71 308.823L316.149 303.703Z" fill="#F3C9E2"/>
<path d="M2034.15 305.703C2035.24 301.812 2040.76 301.812 2041.85 305.703L2043.29 310.823C2043.8 312.65 2045.53 313.865 2047.42 313.731L2051.23 313.461C2055.6 313.151 2057.22 319.071 2053.31 321.028L2051.59 321.886C2049.6 322.879 2048.81 325.301 2049.82 327.28L2051.1 329.806C2053.01 333.54 2048.61 337.316 2045.21 334.872L2040.33 331.373C2038.94 330.373 2037.06 330.373 2035.67 331.373L2030.79 334.872C2027.39 337.316 2022.99 333.54 2024.9 329.806L2026.18 327.28C2027.19 325.301 2026.4 322.879 2024.41 321.886L2022.69 321.028C2018.78 319.071 2020.4 313.151 2024.77 313.461L2028.58 313.731C2030.47 313.865 2032.2 312.65 2032.71 310.823L2034.15 305.703Z" fill="#F3C9E2"/>
<path d="M1574.15 1230.7C1575.24 1226.81 1580.76 1226.81 1581.85 1230.7L1583.29 1235.82C1583.8 1237.65 1585.53 1238.87 1587.42 1238.73L1591.23 1238.46C1595.6 1238.15 1597.22 1244.07 1593.31 1246.03L1591.59 1246.89C1589.6 1247.88 1588.81 1250.3 1589.82 1252.28L1591.1 1254.81C1593.01 1258.54 1588.61 1262.32 1585.21 1259.87L1580.33 1256.37C1578.94 1255.37 1577.06 1255.37 1575.67 1256.37L1570.79 1259.87C1567.39 1262.32 1562.99 1258.54 1564.9 1254.81L1566.18 1252.28C1567.19 1250.3 1566.4 1247.88 1564.41 1246.89L1562.69 1246.03C1558.78 1244.07 1560.4 1238.15 1564.77 1238.46L1568.58 1238.73C1570.47 1238.87 1572.2 1237.65 1572.71 1235.82L1574.15 1230.7Z" fill="#F3C9E2"/>
<path d="M325.149 1386.7C326.242 1382.81 331.758 1382.81 332.851 1386.7L334.29 1391.82C334.803 1393.65 336.53 1394.87 338.424 1394.73L342.235 1394.46C346.6 1394.15 348.221 1400.07 344.307 1402.03L342.591 1402.89C340.605 1403.88 339.808 1406.3 340.816 1408.28L342.104 1410.81C344.007 1414.54 339.614 1418.32 336.208 1415.87L331.332 1412.37C329.938 1411.37 328.062 1411.37 326.668 1412.37L321.792 1415.87C318.387 1418.32 313.993 1414.54 315.896 1410.81L317.184 1408.28C318.192 1406.3 317.395 1403.88 315.409 1402.89L313.693 1402.03C309.779 1400.07 311.4 1394.15 315.765 1394.46L319.576 1394.73C321.47 1394.87 323.197 1393.65 323.71 1391.82L325.149 1386.7Z" fill="#F3C9E2"/>
<path d="M74.1492 275.703C75.2425 271.812 80.7575 271.812 81.8508 275.703L83.2898 280.823C83.8033 282.65 85.5303 283.865 87.4236 283.731L91.2347 283.461C95.6005 283.151 97.2212 289.071 93.3065 291.028L91.5914 291.886C89.6048 292.879 88.8078 295.301 89.8163 297.28L91.1035 299.806C93.0069 303.54 88.6135 307.316 85.2077 304.872L80.3319 301.373C78.9382 300.373 77.0618 300.373 75.6681 301.373L70.7923 304.872C67.3865 307.316 62.9931 303.54 64.8965 299.806L66.1837 297.28C67.1922 295.301 66.3952 292.879 64.4086 291.886L62.6935 291.028C58.7788 289.071 60.3996 283.151 64.7653 283.461L68.5764 283.731C70.4697 283.865 72.1967 282.65 72.7102 280.823L74.1492 275.703Z" fill="#6D6B45"/>
<path d="M1792.15 277.703C1793.24 273.812 1798.76 273.812 1799.85 277.703L1801.29 282.823C1801.8 284.65 1803.53 285.865 1805.42 285.731L1809.23 285.461C1813.6 285.151 1815.22 291.071 1811.31 293.028L1809.59 293.886C1807.6 294.879 1806.81 297.301 1807.82 299.28L1809.1 301.806C1811.01 305.54 1806.61 309.316 1803.21 306.872L1798.33 303.373C1796.94 302.373 1795.06 302.373 1793.67 303.373L1788.79 306.872C1785.39 309.316 1780.99 305.54 1782.9 301.806L1784.18 299.28C1785.19 297.301 1784.4 294.879 1782.41 293.886L1780.69 293.028C1776.78 291.071 1778.4 285.151 1782.77 285.461L1786.58 285.731C1788.47 285.865 1790.2 284.65 1790.71 282.823L1792.15 277.703Z" fill="#6D6B45"/>
<path d="M1332.15 1202.7C1333.24 1198.81 1338.76 1198.81 1339.85 1202.7L1341.29 1207.82C1341.8 1209.65 1343.53 1210.87 1345.42 1210.73L1349.23 1210.46C1353.6 1210.15 1355.22 1216.07 1351.31 1218.03L1349.59 1218.89C1347.6 1219.88 1346.81 1222.3 1347.82 1224.28L1349.1 1226.81C1351.01 1230.54 1346.61 1234.32 1343.21 1231.87L1338.33 1228.37C1336.94 1227.37 1335.06 1227.37 1333.67 1228.37L1328.79 1231.87C1325.39 1234.32 1320.99 1230.54 1322.9 1226.81L1324.18 1224.28C1325.19 1222.3 1324.4 1219.88 1322.41 1218.89L1320.69 1218.03C1316.78 1216.07 1318.4 1210.15 1322.77 1210.46L1326.58 1210.73C1328.47 1210.87 1330.2 1209.65 1330.71 1207.82L1332.15 1202.7Z" fill="#6D6B45"/>
<path d="M83.1492 1358.7C84.2425 1354.81 89.7575 1354.81 90.8508 1358.7L92.2898 1363.82C92.8033 1365.65 94.5303 1366.87 96.4236 1366.73L100.235 1366.46C104.6 1366.15 106.221 1372.07 102.307 1374.03L100.591 1374.89C98.6048 1375.88 97.8078 1378.3 98.8163 1380.28L100.104 1382.81C102.007 1386.54 97.6135 1390.32 94.2077 1387.87L89.3319 1384.37C87.9382 1383.37 86.0618 1383.37 84.6681 1384.37L79.7923 1387.87C76.3865 1390.32 71.9931 1386.54 73.8965 1382.81L75.1837 1380.28C76.1922 1378.3 75.3952 1375.88 73.4086 1374.89L71.6935 1374.03C67.7788 1372.07 69.3996 1366.15 73.7653 1366.46L77.5764 1366.73C79.4697 1366.87 81.1967 1365.65 81.7102 1363.82L83.1492 1358.7Z" fill="#6D6B45"/>
<path d="M293.149 107.703C294.242 103.812 299.758 103.812 300.851 107.703L302.29 112.823C302.803 114.65 304.53 115.865 306.424 115.731L310.235 115.461C314.6 115.151 316.221 121.071 312.307 123.028L310.591 123.886C308.605 124.879 307.808 127.301 308.816 129.28L310.104 131.806C312.007 135.54 307.614 139.316 304.208 136.872L299.332 133.373C297.938 132.373 296.062 132.373 294.668 133.373L289.792 136.872C286.387 139.316 281.993 135.54 283.896 131.806L285.184 129.28C286.192 127.301 285.395 124.879 283.409 123.886L281.693 123.028C277.779 121.071 279.4 115.151 283.765 115.461L287.576 115.731C289.47 115.865 291.197 114.65 291.71 112.823L293.149 107.703Z" fill="#F3C9E2"/>
<path d="M2011.15 109.703C2012.24 105.812 2017.76 105.812 2018.85 109.703L2020.29 114.823C2020.8 116.65 2022.53 117.865 2024.42 117.731L2028.23 117.461C2032.6 117.151 2034.22 123.071 2030.31 125.028L2028.59 125.886C2026.6 126.879 2025.81 129.301 2026.82 131.28L2028.1 133.806C2030.01 137.54 2025.61 141.316 2022.21 138.872L2017.33 135.373C2015.94 134.373 2014.06 134.373 2012.67 135.373L2007.79 138.872C2004.39 141.316 1999.99 137.54 2001.9 133.806L2003.18 131.28C2004.19 129.301 2003.4 126.879 2001.41 125.886L1999.69 125.028C1995.78 123.071 1997.4 117.151 2001.77 117.461L2005.58 117.731C2007.47 117.865 2009.2 116.65 2009.71 114.823L2011.15 109.703Z" fill="#F3C9E2"/>
<path d="M1551.15 1034.7C1552.24 1030.81 1557.76 1030.81 1558.85 1034.7L1560.29 1039.82C1560.8 1041.65 1562.53 1042.87 1564.42 1042.73L1568.23 1042.46C1572.6 1042.15 1574.22 1048.07 1570.31 1050.03L1568.59 1050.89C1566.6 1051.88 1565.81 1054.3 1566.82 1056.28L1568.1 1058.81C1570.01 1062.54 1565.61 1066.32 1562.21 1063.87L1557.33 1060.37C1555.94 1059.37 1554.06 1059.37 1552.67 1060.37L1547.79 1063.87C1544.39 1066.32 1539.99 1062.54 1541.9 1058.81L1543.18 1056.28C1544.19 1054.3 1543.4 1051.88 1541.41 1050.89L1539.69 1050.03C1535.78 1048.07 1537.4 1042.15 1541.77 1042.46L1545.58 1042.73C1547.47 1042.87 1549.2 1041.65 1549.71 1039.82L1551.15 1034.7Z" fill="#F3C9E2"/>
<path d="M302.149 1190.7C303.242 1186.81 308.758 1186.81 309.851 1190.7L311.29 1195.82C311.803 1197.65 313.53 1198.87 315.424 1198.73L319.235 1198.46C323.6 1198.15 325.221 1204.07 321.307 1206.03L319.591 1206.89C317.605 1207.88 316.808 1210.3 317.816 1212.28L319.104 1214.81C321.007 1218.54 316.614 1222.32 313.208 1219.87L308.332 1216.37C306.938 1215.37 305.062 1215.37 303.668 1216.37L298.792 1219.87C295.387 1222.32 290.993 1218.54 292.896 1214.81L294.184 1212.28C295.192 1210.3 294.395 1207.88 292.409 1206.89L290.693 1206.03C286.779 1204.07 288.4 1198.15 292.765 1198.46L296.576 1198.73C298.47 1198.87 300.197 1197.65 300.71 1195.82L302.149 1190.7Z" fill="#F3C9E2"/>
<path d="M130.149 508.703C131.242 504.812 136.758 504.812 137.851 508.703L139.29 513.823C139.803 515.65 141.53 516.865 143.424 516.731L147.235 516.461C151.6 516.151 153.221 522.071 149.307 524.028L147.591 524.886C145.605 525.879 144.808 528.301 145.816 530.28L147.104 532.806C149.007 536.54 144.614 540.316 141.208 537.872L136.332 534.373C134.938 533.373 133.062 533.373 131.668 534.373L126.792 537.872C123.387 540.316 118.993 536.54 120.896 532.806L122.184 530.28C123.192 528.301 122.395 525.879 120.409 524.886L118.693 524.028C114.779 522.071 116.4 516.151 120.765 516.461L124.576 516.731C126.47 516.865 128.197 515.65 128.71 513.823L130.149 508.703Z" fill="#F3C9E2"/>
<path d="M1848.15 510.703C1849.24 506.812 1854.76 506.812 1855.85 510.703L1857.29 515.823C1857.8 517.65 1859.53 518.865 1861.42 518.731L1865.23 518.461C1869.6 518.151 1871.22 524.071 1867.31 526.028L1865.59 526.886C1863.6 527.879 1862.81 530.301 1863.82 532.28L1865.1 534.806C1867.01 538.54 1862.61 542.316 1859.21 539.872L1854.33 536.373C1852.94 535.373 1851.06 535.373 1849.67 536.373L1844.79 539.872C1841.39 542.316 1836.99 538.54 1838.9 534.806L1840.18 532.28C1841.19 530.301 1840.4 527.879 1838.41 526.886L1836.69 526.028C1832.78 524.071 1834.4 518.151 1838.77 518.461L1842.58 518.731C1844.47 518.865 1846.2 517.65 1846.71 515.823L1848.15 510.703Z" fill="#CC448A"/>
<path d="M1388.15 1435.7C1389.24 1431.81 1394.76 1431.81 1395.85 1435.7L1397.29 1440.82C1397.8 1442.65 1399.53 1443.87 1401.42 1443.73L1405.23 1443.46C1409.6 1443.15 1411.22 1449.07 1407.31 1451.03L1405.59 1451.89C1403.6 1452.88 1402.81 1455.3 1403.82 1457.28L1405.1 1459.81C1407.01 1463.54 1402.61 1467.32 1399.21 1464.87L1394.33 1461.37C1392.94 1460.37 1391.06 1460.37 1389.67 1461.37L1384.79 1464.87C1381.39 1467.32 1376.99 1463.54 1378.9 1459.81L1380.18 1457.28C1381.19 1455.3 1380.4 1452.88 1378.41 1451.89L1376.69 1451.03C1372.78 1449.07 1374.4 1443.15 1378.77 1443.46L1382.58 1443.73C1384.47 1443.87 1386.2 1442.65 1386.71 1440.82L1388.15 1435.7Z" fill="#CC448A"/>
<path d="M139.149 1591.7C140.242 1587.81 145.758 1587.81 146.851 1591.7L148.29 1596.82C148.803 1598.65 150.53 1599.87 152.424 1599.73L156.235 1599.46C160.6 1599.15 162.221 1605.07 158.307 1607.03L156.591 1607.89C154.605 1608.88 153.808 1611.3 154.816 1613.28L156.104 1615.81C158.007 1619.54 153.614 1623.32 150.208 1620.87L145.332 1617.37C143.938 1616.37 142.062 1616.37 140.668 1617.37L135.792 1620.87C132.387 1623.32 127.993 1619.54 129.896 1615.81L131.184 1613.28C132.192 1611.3 131.395 1608.88 129.409 1607.89L127.693 1607.03C123.779 1605.07 125.4 1599.15 129.765 1599.46L133.576 1599.73C135.47 1599.87 137.197 1598.65 137.71 1596.82L139.149 1591.7Z" fill="#CC448A"/>
<path d="M-3.85083 660.703C-2.75752 656.812 2.75752 656.812 3.85083 660.703L5.28977 665.823C5.80328 667.65 7.53026 668.865 9.42357 668.731L13.2347 668.461C17.6005 668.151 19.2212 674.071 15.3065 676.028L13.5914 676.886C11.6048 677.879 10.8078 680.301 11.8163 682.28L13.1035 684.806C15.0069 688.54 10.6135 692.316 7.20771 689.872L2.33194 686.373C0.938157 685.373 -0.938154 685.373 -2.33194 686.373L-7.2077 689.872C-10.6135 692.316 -15.0069 688.54 -13.1035 684.806L-11.8163 682.28C-10.8078 680.301 -11.6048 677.879 -13.5914 676.886L-15.3065 676.028C-19.2212 674.071 -17.6004 668.151 -13.2347 668.461L-9.42357 668.731C-7.53026 668.865 -5.80328 667.65 -5.28977 665.823L-3.85083 660.703Z" fill="#F3C9E2"/>
<path d="M1714.15 662.703C1715.24 658.812 1720.76 658.812 1721.85 662.703L1723.29 667.823C1723.8 669.65 1725.53 670.865 1727.42 670.731L1731.23 670.461C1735.6 670.151 1737.22 676.071 1733.31 678.028L1731.59 678.886C1729.6 679.879 1728.81 682.301 1729.82 684.28L1731.1 686.806C1733.01 690.54 1728.61 694.316 1725.21 691.872L1720.33 688.373C1718.94 687.373 1717.06 687.373 1715.67 688.373L1710.79 691.872C1707.39 694.316 1702.99 690.54 1704.9 686.806L1706.18 684.28C1707.19 682.301 1706.4 679.879 1704.41 678.886L1702.69 678.028C1698.78 676.071 1700.4 670.151 1704.77 670.461L1708.58 670.731C1710.47 670.865 1712.2 669.65 1712.71 667.823L1714.15 662.703Z" fill="#F3C9E2"/>
<path d="M1254.15 1587.7C1255.24 1583.81 1260.76 1583.81 1261.85 1587.7L1263.29 1592.82C1263.8 1594.65 1265.53 1595.87 1267.42 1595.73L1271.23 1595.46C1275.6 1595.15 1277.22 1601.07 1273.31 1603.03L1271.59 1603.89C1269.6 1604.88 1268.81 1607.3 1269.82 1609.28L1271.1 1611.81C1273.01 1615.54 1268.61 1619.32 1265.21 1616.87L1260.33 1613.37C1258.94 1612.37 1257.06 1612.37 1255.67 1613.37L1250.79 1616.87C1247.39 1619.32 1242.99 1615.54 1244.9 1611.81L1246.18 1609.28C1247.19 1607.3 1246.4 1604.88 1244.41 1603.89L1242.69 1603.03C1238.78 1601.07 1240.4 1595.15 1244.77 1595.46L1248.58 1595.73C1250.47 1595.87 1252.2 1594.65 1252.71 1592.82L1254.15 1587.7Z" fill="#F3C9E2"/>
<path d="M646.149 274.703C647.242 270.812 652.758 270.812 653.851 274.703L655.29 279.823C655.803 281.65 657.53 282.865 659.424 282.731L663.235 282.461C667.6 282.151 669.221 288.071 665.307 290.028L663.591 290.886C661.605 291.879 660.808 294.301 661.816 296.28L663.104 298.806C665.007 302.54 660.614 306.316 657.208 303.872L652.332 300.373C650.938 299.373 649.062 299.373 647.668 300.373L642.792 303.872C639.387 306.316 634.993 302.54 636.896 298.806L638.184 296.28C639.192 294.301 638.395 291.879 636.409 290.886L634.693 290.028C630.779 288.071 632.4 282.151 636.765 282.461L640.576 282.731C642.47 282.865 644.197 281.65 644.71 279.823L646.149 274.703Z" fill="#6D6B45"/>
<path d="M2364.15 276.703C2365.24 272.812 2370.76 272.812 2371.85 276.703L2373.29 281.823C2373.8 283.65 2375.53 284.865 2377.42 284.731L2381.23 284.461C2385.6 284.151 2387.22 290.071 2383.31 292.028L2381.59 292.886C2379.6 293.879 2378.81 296.301 2379.82 298.28L2381.1 300.806C2383.01 304.54 2378.61 308.316 2375.21 305.872L2370.33 302.373C2368.94 301.373 2367.06 301.373 2365.67 302.373L2360.79 305.872C2357.39 308.316 2352.99 304.54 2354.9 300.806L2356.18 298.28C2357.19 296.301 2356.4 293.879 2354.41 292.886L2352.69 292.028C2348.78 290.071 2350.4 284.151 2354.77 284.461L2358.58 284.731C2360.47 284.865 2362.2 283.65 2362.71 281.823L2364.15 276.703Z" fill="#6D6B45"/>
<path d="M1904.15 1201.7C1905.24 1197.81 1910.76 1197.81 1911.85 1201.7L1913.29 1206.82C1913.8 1208.65 1915.53 1209.87 1917.42 1209.73L1921.23 1209.46C1925.6 1209.15 1927.22 1215.07 1923.31 1217.03L1921.59 1217.89C1919.6 1218.88 1918.81 1221.3 1919.82 1223.28L1921.1 1225.81C1923.01 1229.54 1918.61 1233.32 1915.21 1230.87L1910.33 1227.37C1908.94 1226.37 1907.06 1226.37 1905.67 1227.37L1900.79 1230.87C1897.39 1233.32 1892.99 1229.54 1894.9 1225.81L1896.18 1223.28C1897.19 1221.3 1896.4 1218.88 1894.41 1217.89L1892.69 1217.03C1888.78 1215.07 1890.4 1209.15 1894.77 1209.46L1898.58 1209.73C1900.47 1209.87 1902.2 1208.65 1902.71 1206.82L1904.15 1201.7Z" fill="#6D6B45"/>
<path d="M2443.15 1133.7C2444.24 1129.81 2449.76 1129.81 2450.85 1133.7L2452.29 1138.82C2452.8 1140.65 2454.53 1141.87 2456.42 1141.73L2460.23 1141.46C2464.6 1141.15 2466.22 1147.07 2462.31 1149.03L2460.59 1149.89C2458.6 1150.88 2457.81 1153.3 2458.82 1155.28L2460.1 1157.81C2462.01 1161.54 2457.61 1165.32 2454.21 1162.87L2449.33 1159.37C2447.94 1158.37 2446.06 1158.37 2444.67 1159.37L2439.79 1162.87C2436.39 1165.32 2431.99 1161.54 2433.9 1157.81L2435.18 1155.28C2436.19 1153.3 2435.4 1150.88 2433.41 1149.89L2431.69 1149.03C2427.78 1147.07 2429.4 1141.15 2433.77 1141.46L2437.58 1141.73C2439.47 1141.87 2441.2 1140.65 2441.71 1138.82L2443.15 1133.7Z" fill="#6D6B45"/>
<path d="M655.149 1357.7C656.242 1353.81 661.758 1353.81 662.851 1357.7L664.29 1362.82C664.803 1364.65 666.53 1365.87 668.424 1365.73L672.235 1365.46C676.6 1365.15 678.221 1371.07 674.307 1373.03L672.591 1373.89C670.605 1374.88 669.808 1377.3 670.816 1379.28L672.104 1381.81C674.007 1385.54 669.614 1389.32 666.208 1386.87L661.332 1383.37C659.938 1382.37 658.062 1382.37 656.668 1383.37L651.792 1386.87C648.387 1389.32 643.993 1385.54 645.896 1381.81L647.184 1379.28C648.192 1377.3 647.395 1374.88 645.409 1373.89L643.693 1373.03C639.779 1371.07 641.4 1365.15 645.765 1365.46L649.576 1365.73C651.47 1365.87 653.197 1364.65 653.71 1362.82L655.149 1357.7Z" fill="#6D6B45"/>
<path d="M701.149 -5.2972C702.242 -9.18762 707.758 -9.18763 708.851 -5.2972L710.29 -0.176874C710.803 1.65041 712.53 2.8652 714.424 2.73093L718.235 2.46064C722.6 2.15101 724.221 8.07112 720.307 10.0284L718.591 10.8859C716.605 11.8792 715.808 14.3008 716.816 16.2798L718.104 18.8056C720.007 22.5404 715.614 26.3156 712.208 23.8718L707.332 20.3733C705.938 19.3732 704.062 19.3732 702.668 20.3733L697.792 23.8718C694.387 26.3156 689.993 22.5404 691.896 18.8056L693.184 16.2798C694.192 14.3008 693.395 11.8792 691.409 10.8859L689.693 10.0284C685.779 8.07112 687.4 2.15101 691.765 2.46064L695.576 2.73093C697.47 2.8652 699.197 1.65041 699.71 -0.176871L701.149 -5.2972Z" fill="#F7F2CF"/>
<path d="M2419.15 -3.2972C2420.24 -7.18762 2425.76 -7.18763 2426.85 -3.2972L2428.29 1.82313C2428.8 3.65041 2430.53 4.8652 2432.42 4.73093L2436.23 4.46064C2440.6 4.15101 2442.22 10.0711 2438.31 12.0284L2436.59 12.8859C2434.6 13.8792 2433.81 16.3008 2434.82 18.2798L2436.1 20.8056C2438.01 24.5404 2433.61 28.3156 2430.21 25.8718L2425.33 22.3733C2423.94 21.3732 2422.06 21.3732 2420.67 22.3733L2415.79 25.8718C2412.39 28.3156 2407.99 24.5404 2409.9 20.8056L2411.18 18.2798C2412.19 16.3008 2411.4 13.8792 2409.41 12.8859L2407.69 12.0284C2403.78 10.0711 2405.4 4.15101 2409.77 4.46064L2413.58 4.73093C2415.47 4.8652 2417.2 3.65041 2417.71 1.82313L2419.15 -3.2972Z" fill="#F7F2CF"/>
<path d="M1366.15 78.7028C1367.24 74.8124 1372.76 74.8124 1373.85 78.7028L1375.29 83.8231C1375.8 85.6504 1377.53 86.8652 1379.42 86.7309L1383.23 86.4606C1387.6 86.151 1389.22 92.0711 1385.31 94.0284L1383.59 94.8859C1381.6 95.8792 1380.81 98.3008 1381.82 100.28L1383.1 102.806C1385.01 106.54 1380.61 110.316 1377.21 107.872L1372.33 104.373C1370.94 103.373 1369.06 103.373 1367.67 104.373L1362.79 107.872C1359.39 110.316 1354.99 106.54 1356.9 102.806L1358.18 100.28C1359.19 98.3008 1358.4 95.8792 1356.41 94.8859L1354.69 94.0284C1350.78 92.0711 1352.4 86.151 1356.77 86.4606L1360.58 86.7309C1362.47 86.8652 1364.2 85.6504 1364.71 83.8231L1366.15 78.7028Z" fill="#F3C9E2"/>
<path d="M710.149 1077.7C711.242 1073.81 716.758 1073.81 717.851 1077.7L719.29 1082.82C719.803 1084.65 721.53 1085.87 723.424 1085.73L727.235 1085.46C731.6 1085.15 733.221 1091.07 729.307 1093.03L727.591 1093.89C725.605 1094.88 724.808 1097.3 725.816 1099.28L727.104 1101.81C729.007 1105.54 724.614 1109.32 721.208 1106.87L716.332 1103.37C714.938 1102.37 713.062 1102.37 711.668 1103.37L706.792 1106.87C703.387 1109.32 698.993 1105.54 700.896 1101.81L702.184 1099.28C703.192 1097.3 702.395 1094.88 700.409 1093.89L698.693 1093.03C694.779 1091.07 696.4 1085.15 700.765 1085.46L704.576 1085.73C706.47 1085.87 708.197 1084.65 708.71 1082.82L710.149 1077.7Z" fill="#F3C9E2"/>
<path d="M1587.15 491.703C1588.24 487.812 1593.76 487.812 1594.85 491.703L1596.29 496.823C1596.8 498.65 1598.53 499.865 1600.42 499.731L1604.23 499.461C1608.6 499.151 1610.22 505.071 1606.31 507.028L1604.59 507.886C1602.6 508.879 1601.81 511.301 1602.82 513.28L1604.1 515.806C1606.01 519.54 1601.61 523.316 1598.21 520.872L1593.33 517.373C1591.94 516.373 1590.06 516.373 1588.67 517.373L1583.79 520.872C1580.39 523.316 1575.99 519.54 1577.9 515.806L1579.18 513.28C1580.19 511.301 1579.4 508.879 1577.41 507.886L1575.69 507.028C1571.78 505.071 1573.4 499.151 1577.77 499.461L1581.58 499.731C1583.47 499.865 1585.2 498.65 1585.71 496.823L1587.15 491.703Z" fill="#F3C9E2"/>
<path d="M60.1492 13.7028C61.2425 9.81238 66.7575 9.81237 67.8508 13.7028L69.2898 18.8231C69.8033 20.6504 71.5303 21.8652 73.4236 21.7309L77.2347 21.4606C81.6005 21.151 83.2212 27.0711 79.3065 29.0284L77.5914 29.8859C75.6048 30.8792 74.8078 33.3008 75.8163 35.2798L77.1035 37.8056C79.0069 41.5404 74.6135 45.3156 71.2077 42.8718L66.3319 39.3733C64.9382 38.3732 63.0618 38.3732 61.6681 39.3733L56.7923 42.8718C53.3865 45.3156 48.9931 41.5404 50.8965 37.8056L52.1837 35.2798C53.1922 33.3008 52.3952 30.8792 50.4086 29.8859L48.6935 29.0284C44.7788 27.0711 46.3996 21.151 50.7653 21.4606L54.5764 21.7309C56.4697 21.8652 58.1967 20.6504 58.7102 18.8231L60.1492 13.7028Z" fill="#F7F2CF"/>
<path d="M1778.15 15.7028C1779.24 11.8124 1784.76 11.8124 1785.85 15.7028L1787.29 20.8231C1787.8 22.6504 1789.53 23.8652 1791.42 23.7309L1795.23 23.4606C1799.6 23.151 1801.22 29.0711 1797.31 31.0284L1795.59 31.8859C1793.6 32.8792 1792.81 35.3008 1793.82 37.2798L1795.1 39.8056C1797.01 43.5404 1792.61 47.3156 1789.21 44.8718L1784.33 41.3733C1782.94 40.3732 1781.06 40.3732 1779.67 41.3733L1774.79 44.8718C1771.39 47.3156 1766.99 43.5404 1768.9 39.8056L1770.18 37.2798C1771.19 35.3008 1770.4 32.8792 1768.41 31.8859L1766.69 31.0284C1762.78 29.0711 1764.4 23.151 1768.77 23.4606L1772.58 23.7309C1774.47 23.8652 1776.2 22.6504 1776.71 20.8231L1778.15 15.7028Z" fill="#F7F2CF"/>
<path d="M1318.15 940.703C1319.24 936.812 1324.76 936.812 1325.85 940.703L1327.29 945.823C1327.8 947.65 1329.53 948.865 1331.42 948.731L1335.23 948.461C1339.6 948.151 1341.22 954.071 1337.31 956.028L1335.59 956.886C1333.6 957.879 1332.81 960.301 1333.82 962.28L1335.1 964.806C1337.01 968.54 1332.61 972.316 1329.21 969.872L1324.33 966.373C1322.94 965.373 1321.06 965.373 1319.67 966.373L1314.79 969.872C1311.39 972.316 1306.99 968.54 1308.9 964.806L1310.18 962.28C1311.19 960.301 1310.4 957.879 1308.41 956.886L1306.69 956.028C1302.78 954.071 1304.4 948.151 1308.77 948.461L1312.58 948.731C1314.47 948.865 1316.2 947.65 1316.71 945.823L1318.15 940.703Z" fill="#F3C9E2"/>
<path d="M69.1492 1096.7C70.2425 1092.81 75.7575 1092.81 76.8508 1096.7L78.2898 1101.82C78.8033 1103.65 80.5303 1104.87 82.4236 1104.73L86.2347 1104.46C90.6005 1104.15 92.2212 1110.07 88.3065 1112.03L86.5914 1112.89C84.6048 1113.88 83.8078 1116.3 84.8163 1118.28L86.1035 1120.81C88.0069 1124.54 83.6135 1128.32 80.2077 1125.87L75.3319 1122.37C73.9382 1121.37 72.0618 1121.37 70.6681 1122.37L65.7923 1125.87C62.3865 1128.32 57.9931 1124.54 59.8965 1120.81L61.1837 1118.28C62.1922 1116.3 61.3952 1113.88 59.4086 1112.89L57.6935 1112.03C53.7788 1110.07 55.3996 1104.15 59.7653 1104.46L63.5764 1104.73C65.4697 1104.87 67.1967 1103.65 67.7102 1101.82L69.1492 1096.7Z" fill="#F3C9E2"/>
<path d="M730.149 500.703C731.242 496.812 736.758 496.812 737.851 500.703L739.29 505.823C739.803 507.65 741.53 508.865 743.424 508.731L747.235 508.461C751.6 508.151 753.221 514.071 749.307 516.028L747.591 516.886C745.605 517.879 744.808 520.301 745.816 522.28L747.104 524.806C749.007 528.54 744.614 532.316 741.208 529.872L736.332 526.373C734.938 525.373 733.062 525.373 731.668 526.373L726.792 529.872C723.387 532.316 718.993 528.54 720.896 524.806L722.184 522.28C723.192 520.301 722.395 517.879 720.409 516.886L718.693 516.028C714.779 514.071 716.4 508.151 720.765 508.461L724.576 508.731C726.47 508.865 728.197 507.65 728.71 505.823L730.149 500.703Z" fill="#F3C9E2"/>
<path d="M2448.15 502.703C2449.24 498.812 2454.76 498.812 2455.85 502.703L2457.29 507.823C2457.8 509.65 2459.53 510.865 2461.42 510.731L2465.23 510.461C2469.6 510.151 2471.22 516.071 2467.31 518.028L2465.59 518.886C2463.6 519.879 2462.81 522.301 2463.82 524.28L2465.1 526.806C2467.01 530.54 2462.61 534.316 2459.21 531.872L2454.33 528.373C2452.94 527.373 2451.06 527.373 2449.67 528.373L2444.79 531.872C2441.39 534.316 2436.99 530.54 2438.9 526.806L2440.18 524.28C2441.19 522.301 2440.4 519.879 2438.41 518.886L2436.69 518.028C2432.78 516.071 2434.4 510.151 2438.77 510.461L2442.58 510.731C2444.47 510.865 2446.2 509.65 2446.71 507.823L2448.15 502.703Z" fill="#F3C9E2"/>
<path d="M1988.15 1427.7C1989.24 1423.81 1994.76 1423.81 1995.85 1427.7L1997.29 1432.82C1997.8 1434.65 1999.53 1435.87 2001.42 1435.73L2005.23 1435.46C2009.6 1435.15 2011.22 1441.07 2007.31 1443.03L2005.59 1443.89C2003.6 1444.88 2002.81 1447.3 2003.82 1449.28L2005.1 1451.81C2007.01 1455.54 2002.61 1459.32 1999.21 1456.87L1994.33 1453.37C1992.94 1452.37 1991.06 1452.37 1989.67 1453.37L1984.79 1456.87C1981.39 1459.32 1976.99 1455.54 1978.9 1451.81L1980.18 1449.28C1981.19 1447.3 1980.4 1444.88 1978.41 1443.89L1976.69 1443.03C1972.78 1441.07 1974.4 1435.15 1978.77 1435.46L1982.58 1435.73C1984.47 1435.87 1986.2 1434.65 1986.71 1432.82L1988.15 1427.7Z" fill="#F3C9E2"/>
<path d="M2527.15 1359.7C2528.24 1355.81 2533.76 1355.81 2534.85 1359.7L2536.29 1364.82C2536.8 1366.65 2538.53 1367.87 2540.42 1367.73L2544.23 1367.46C2548.6 1367.15 2550.22 1373.07 2546.31 1375.03L2544.59 1375.89C2542.6 1376.88 2541.81 1379.3 2542.82 1381.28L2544.1 1383.81C2546.01 1387.54 2541.61 1391.32 2538.21 1388.87L2533.33 1385.37C2531.94 1384.37 2530.06 1384.37 2528.67 1385.37L2523.79 1388.87C2520.39 1391.32 2515.99 1387.54 2517.9 1383.81L2519.18 1381.28C2520.19 1379.3 2519.4 1376.88 2517.41 1375.89L2515.69 1375.03C2511.78 1373.07 2513.4 1367.15 2517.77 1367.46L2521.58 1367.73C2523.47 1367.87 2525.2 1366.65 2525.71 1364.82L2527.15 1359.7Z" fill="#F3C9E2"/>
<path d="M739.149 1583.7C740.242 1579.81 745.758 1579.81 746.851 1583.7L748.29 1588.82C748.803 1590.65 750.53 1591.87 752.424 1591.73L756.235 1591.46C760.6 1591.15 762.221 1597.07 758.307 1599.03L756.591 1599.89C754.605 1600.88 753.808 1603.3 754.816 1605.28L756.104 1607.81C758.007 1611.54 753.614 1615.32 750.208 1612.87L745.332 1609.37C743.938 1608.37 742.062 1608.37 740.668 1609.37L735.792 1612.87C732.387 1615.32 727.993 1611.54 729.896 1607.81L731.184 1605.28C732.192 1603.3 731.395 1600.88 729.409 1599.89L727.693 1599.03C723.779 1597.07 725.4 1591.15 729.765 1591.46L733.576 1591.73C735.47 1591.87 737.197 1590.65 737.71 1588.82L739.149 1583.7Z" fill="#F3C9E2"/>
<path d="M403.149 681.703C404.242 677.812 409.758 677.812 410.851 681.703L412.29 686.823C412.803 688.65 414.53 689.865 416.424 689.731L420.235 689.461C424.6 689.151 426.221 695.071 422.307 697.028L420.591 697.886C418.605 698.879 417.808 701.301 418.816 703.28L420.104 705.806C422.007 709.54 417.614 713.316 414.208 710.872L409.332 707.373C407.938 706.373 406.062 706.373 404.668 707.373L399.792 710.872C396.387 713.316 391.993 709.54 393.896 705.806L395.184 703.28C396.192 701.301 395.395 698.879 393.409 697.886L391.693 697.028C387.779 695.071 389.4 689.151 393.765 689.461L397.576 689.731C399.47 689.865 401.197 688.65 401.71 686.823L403.149 681.703Z" fill="#6D6B45"/>
<path d="M2121.15 683.703C2122.24 679.812 2127.76 679.812 2128.85 683.703L2130.29 688.823C2130.8 690.65 2132.53 691.865 2134.42 691.731L2138.23 691.461C2142.6 691.151 2144.22 697.071 2140.31 699.028L2138.59 699.886C2136.6 700.879 2135.81 703.301 2136.82 705.28L2138.1 707.806C2140.01 711.54 2135.61 715.316 2132.21 712.872L2127.33 709.373C2125.94 708.373 2124.06 708.373 2122.67 709.373L2117.79 712.872C2114.39 715.316 2109.99 711.54 2111.9 707.806L2113.18 705.28C2114.19 703.301 2113.4 700.879 2111.41 699.886L2109.69 699.028C2105.78 697.071 2107.4 691.151 2111.77 691.461L2115.58 691.731C2117.47 691.865 2119.2 690.65 2119.71 688.823L2121.15 683.703Z" fill="#6D6B45"/>
<path d="M1661.15 1608.7C1662.24 1604.81 1667.76 1604.81 1668.85 1608.7L1670.29 1613.82C1670.8 1615.65 1672.53 1616.87 1674.42 1616.73L1678.23 1616.46C1682.6 1616.15 1684.22 1622.07 1680.31 1624.03L1678.59 1624.89C1676.6 1625.88 1675.81 1628.3 1676.82 1630.28L1678.1 1632.81C1680.01 1636.54 1675.61 1640.32 1672.21 1637.87L1667.33 1634.37C1665.94 1633.37 1664.06 1633.37 1662.67 1634.37L1657.79 1637.87C1654.39 1640.32 1649.99 1636.54 1651.9 1632.81L1653.18 1630.28C1654.19 1628.3 1653.4 1625.88 1651.41 1624.89L1649.69 1624.03C1645.78 1622.07 1647.4 1616.15 1651.77 1616.46L1655.58 1616.73C1657.47 1616.87 1659.2 1615.65 1659.71 1613.82L1661.15 1608.7Z" fill="#6D6B45"/>
<path d="M785.149 854.703C786.242 850.812 791.758 850.812 792.851 854.703L794.29 859.823C794.803 861.65 796.53 862.865 798.424 862.731L802.235 862.461C806.6 862.151 808.221 868.071 804.307 870.028L802.591 870.886C800.605 871.879 799.808 874.301 800.816 876.28L802.104 878.806C804.007 882.54 799.614 886.316 796.208 883.872L791.332 880.373C789.938 879.373 788.062 879.373 786.668 880.373L781.792 883.872C778.387 886.316 773.993 882.54 775.896 878.806L777.184 876.28C778.192 874.301 777.395 871.879 775.409 870.886L773.693 870.028C769.779 868.071 771.4 862.151 775.765 862.461L779.576 862.731C781.47 862.865 783.197 861.65 783.71 859.823L785.149 854.703Z" fill="#6D6B45"/>
<path d="M1657.15 167.703C1658.24 163.812 1663.76 163.812 1664.85 167.703L1666.29 172.823C1666.8 174.65 1668.53 175.865 1670.42 175.731L1674.23 175.461C1678.6 175.151 1680.22 181.071 1676.31 183.028L1674.59 183.886C1672.6 184.879 1671.81 187.301 1672.82 189.28L1674.1 191.806C1676.01 195.54 1671.61 199.316 1668.21 196.872L1663.33 193.373C1661.94 192.373 1660.06 192.373 1658.67 193.373L1653.79 196.872C1650.39 199.316 1645.99 195.54 1647.9 191.806L1649.18 189.28C1650.19 187.301 1649.4 184.879 1647.41 183.886L1645.69 183.028C1641.78 181.071 1643.4 175.151 1647.77 175.461L1651.58 175.731C1653.47 175.865 1655.2 174.65 1655.71 172.823L1657.15 167.703Z" fill="#6D6B45"/>
<path d="M2503.15 856.703C2504.24 852.812 2509.76 852.812 2510.85 856.703L2512.29 861.823C2512.8 863.65 2514.53 864.865 2516.42 864.731L2520.23 864.461C2524.6 864.151 2526.22 870.071 2522.31 872.028L2520.59 872.886C2518.6 873.879 2517.81 876.301 2518.82 878.28L2520.1 880.806C2522.01 884.54 2517.61 888.316 2514.21 885.872L2509.33 882.373C2507.94 881.373 2506.06 881.373 2504.67 882.373L2499.79 885.872C2496.39 888.316 2491.99 884.54 2493.9 880.806L2495.18 878.28C2496.19 876.301 2495.4 873.879 2493.41 872.886L2491.69 872.028C2487.78 870.071 2489.4 864.151 2493.77 864.461L2497.58 864.731C2499.47 864.865 2501.2 863.65 2501.71 861.823L2503.15 856.703Z" fill="#6D6B45"/>
<path d="M1055.15 799.703C1056.24 795.812 1061.76 795.812 1062.85 799.703L1064.29 804.823C1064.8 806.65 1066.53 807.865 1068.42 807.731L1072.23 807.461C1076.6 807.151 1078.22 813.071 1074.31 815.028L1072.59 815.886C1070.6 816.879 1069.81 819.301 1070.82 821.28L1072.1 823.806C1074.01 827.54 1069.61 831.316 1066.21 828.872L1061.33 825.373C1059.94 824.373 1058.06 824.373 1056.67 825.373L1051.79 828.872C1048.39 831.316 1043.99 827.54 1045.9 823.806L1047.18 821.28C1048.19 819.301 1047.4 816.879 1045.41 815.886L1043.69 815.028C1039.78 813.071 1041.4 807.151 1045.77 807.461L1049.58 807.731C1051.47 807.865 1053.2 806.65 1053.71 804.823L1055.15 799.703Z" fill="#F3C9E2"/>
<path d="M1055.15 13.7028C1056.24 9.81238 1061.76 9.81237 1062.85 13.7028L1064.29 18.8231C1064.8 20.6504 1066.53 21.8652 1068.42 21.7309L1072.23 21.4606C1076.6 21.151 1078.22 27.0711 1074.31 29.0284L1072.59 29.8859C1070.6 30.8792 1069.81 33.3008 1070.82 35.2798L1072.1 37.8056C1074.01 41.5404 1069.61 45.3156 1066.21 42.8718L1061.33 39.3733C1059.94 38.3732 1058.06 38.3732 1056.67 39.3733L1051.79 42.8718C1048.39 45.3156 1043.99 41.5404 1045.9 37.8056L1047.18 35.2798C1048.19 33.3008 1047.4 30.8792 1045.41 29.8859L1043.69 29.0284C1039.78 27.0711 1041.4 21.151 1045.77 21.4606L1049.58 21.7309C1051.47 21.8652 1053.2 20.6504 1053.71 18.8231L1055.15 13.7028Z" fill="#6D6B45"/>
<path d="M1064.15 1096.7C1065.24 1092.81 1070.76 1092.81 1071.85 1096.7L1073.29 1101.82C1073.8 1103.65 1075.53 1104.87 1077.42 1104.73L1081.23 1104.46C1085.6 1104.15 1087.22 1110.07 1083.31 1112.03L1081.59 1112.89C1079.6 1113.88 1078.81 1116.3 1079.82 1118.28L1081.1 1120.81C1083.01 1124.54 1078.61 1128.32 1075.21 1125.87L1070.33 1122.37C1068.94 1121.37 1067.06 1121.37 1065.67 1122.37L1060.79 1125.87C1057.39 1128.32 1052.99 1124.54 1054.9 1120.81L1056.18 1118.28C1057.19 1116.3 1056.4 1113.88 1054.41 1112.89L1052.69 1112.03C1048.78 1110.07 1050.4 1104.15 1054.77 1104.46L1058.58 1104.73C1060.47 1104.87 1062.2 1103.65 1062.71 1101.82L1064.15 1096.7Z" fill="#6D6B45"/>
<path d="M900.149 304.703C901.242 300.812 906.758 300.812 907.851 304.703L909.29 309.823C909.803 311.65 911.53 312.865 913.424 312.731L917.235 312.461C921.6 312.151 923.221 318.071 919.307 320.028L917.591 320.886C915.605 321.879 914.808 324.301 915.816 326.28L917.104 328.806C919.007 332.54 914.614 336.316 911.208 333.872L906.332 330.373C904.938 329.373 903.062 329.373 901.668 330.373L896.792 333.872C893.387 336.316 888.993 332.54 890.896 328.806L892.184 326.28C893.192 324.301 892.395 321.879 890.409 320.886L888.693 320.028C884.779 318.071 886.4 312.151 890.765 312.461L894.576 312.731C896.47 312.865 898.197 311.65 898.71 309.823L900.149 304.703Z" fill="#F3C9E2"/>
<path d="M2618.15 306.703C2619.24 302.812 2624.76 302.812 2625.85 306.703L2627.29 311.823C2627.8 313.65 2629.53 314.865 2631.42 314.731L2635.23 314.461C2639.6 314.151 2641.22 320.071 2637.31 322.028L2635.59 322.886C2633.6 323.879 2632.81 326.301 2633.82 328.28L2635.1 330.806C2637.01 334.54 2632.61 338.316 2629.21 335.872L2624.33 332.373C2622.94 331.373 2621.06 331.373 2619.67 332.373L2614.79 335.872C2611.39 338.316 2606.99 334.54 2608.9 330.806L2610.18 328.28C2611.19 326.301 2610.4 323.879 2608.41 322.886L2606.69 322.028C2602.78 320.071 2604.4 314.151 2608.77 314.461L2612.58 314.731C2614.47 314.865 2616.2 313.65 2616.71 311.823L2618.15 306.703Z" fill="#F3C9E2"/>
<path d="M2158.15 1231.7C2159.24 1227.81 2164.76 1227.81 2165.85 1231.7L2167.29 1236.82C2167.8 1238.65 2169.53 1239.87 2171.42 1239.73L2175.23 1239.46C2179.6 1239.15 2181.22 1245.07 2177.31 1247.03L2175.59 1247.89C2173.6 1248.88 2172.81 1251.3 2173.82 1253.28L2175.1 1255.81C2177.01 1259.54 2172.61 1263.32 2169.21 1260.87L2164.33 1257.37C2162.94 1256.37 2161.06 1256.37 2159.67 1257.37L2154.79 1260.87C2151.39 1263.32 2146.99 1259.54 2148.9 1255.81L2150.18 1253.28C2151.19 1251.3 2150.4 1248.88 2148.41 1247.89L2146.69 1247.03C2142.78 1245.07 2144.4 1239.15 2148.77 1239.46L2152.58 1239.73C2154.47 1239.87 2156.2 1238.65 2156.71 1236.82L2158.15 1231.7Z" fill="#F3C9E2"/>
<path d="M2697.15 1163.7C2698.24 1159.81 2703.76 1159.81 2704.85 1163.7L2706.29 1168.82C2706.8 1170.65 2708.53 1171.87 2710.42 1171.73L2714.23 1171.46C2718.6 1171.15 2720.22 1177.07 2716.31 1179.03L2714.59 1179.89C2712.6 1180.88 2711.81 1183.3 2712.82 1185.28L2714.1 1187.81C2716.01 1191.54 2711.61 1195.32 2708.21 1192.87L2703.33 1189.37C2701.94 1188.37 2700.06 1188.37 2698.67 1189.37L2693.79 1192.87C2690.39 1195.32 2685.99 1191.54 2687.9 1187.81L2689.18 1185.28C2690.19 1183.3 2689.4 1180.88 2687.41 1179.89L2685.69 1179.03C2681.78 1177.07 2683.4 1171.15 2687.77 1171.46L2691.58 1171.73C2693.47 1171.87 2695.2 1170.65 2695.71 1168.82L2697.15 1163.7Z" fill="#F3C9E2"/>
<path d="M909.149 1387.7C910.242 1383.81 915.758 1383.81 916.851 1387.7L918.29 1392.82C918.803 1394.65 920.53 1395.87 922.424 1395.73L926.235 1395.46C930.6 1395.15 932.221 1401.07 928.307 1403.03L926.591 1403.89C924.605 1404.88 923.808 1407.3 924.816 1409.28L926.104 1411.81C928.007 1415.54 923.614 1419.32 920.208 1416.87L915.332 1413.37C913.938 1412.37 912.062 1412.37 910.668 1413.37L905.792 1416.87C902.387 1419.32 897.993 1415.54 899.896 1411.81L901.184 1409.28C902.192 1407.3 901.395 1404.88 899.409 1403.89L897.693 1403.03C893.779 1401.07 895.4 1395.15 899.765 1395.46L903.576 1395.73C905.47 1395.87 907.197 1394.65 907.71 1392.82L909.149 1387.7Z" fill="#F3C9E2"/>
<path d="M418.149 459.703C419.242 455.812 424.758 455.812 425.851 459.703L427.29 464.823C427.803 466.65 429.53 467.865 431.424 467.731L435.235 467.461C439.6 467.151 441.221 473.071 437.307 475.028L435.591 475.886C433.605 476.879 432.808 479.301 433.816 481.28L435.104 483.806C437.007 487.54 432.614 491.316 429.208 488.872L424.332 485.373C422.938 484.373 421.062 484.373 419.668 485.373L414.792 488.872C411.387 491.316 406.993 487.54 408.896 483.806L410.184 481.28C411.192 479.301 410.395 476.879 408.409 475.886L406.693 475.028C402.779 473.071 404.4 467.151 408.765 467.461L412.576 467.731C414.47 467.865 416.197 466.65 416.71 464.823L418.149 459.703Z" fill="#F3C9E2"/>
<path d="M2136.15 461.703C2137.24 457.812 2142.76 457.812 2143.85 461.703L2145.29 466.823C2145.8 468.65 2147.53 469.865 2149.42 469.731L2153.23 469.461C2157.6 469.151 2159.22 475.071 2155.31 477.028L2153.59 477.886C2151.6 478.879 2150.81 481.301 2151.82 483.28L2153.1 485.806C2155.01 489.54 2150.61 493.316 2147.21 490.872L2142.33 487.373C2140.94 486.373 2139.06 486.373 2137.67 487.373L2132.79 490.872C2129.39 493.316 2124.99 489.54 2126.9 485.806L2128.18 483.28C2129.19 481.301 2128.4 478.879 2126.41 477.886L2124.69 477.028C2120.78 475.071 2122.4 469.151 2126.77 469.461L2130.58 469.731C2132.47 469.865 2134.2 468.65 2134.71 466.823L2136.15 461.703Z" fill="#F3C9E2"/>
<path d="M1676.15 1386.7C1677.24 1382.81 1682.76 1382.81 1683.85 1386.7L1685.29 1391.82C1685.8 1393.65 1687.53 1394.87 1689.42 1394.73L1693.23 1394.46C1697.6 1394.15 1699.22 1400.07 1695.31 1402.03L1693.59 1402.89C1691.6 1403.88 1690.81 1406.3 1691.82 1408.28L1693.1 1410.81C1695.01 1414.54 1690.61 1418.32 1687.21 1415.87L1682.33 1412.37C1680.94 1411.37 1679.06 1411.37 1677.67 1412.37L1672.79 1415.87C1669.39 1418.32 1664.99 1414.54 1666.9 1410.81L1668.18 1408.28C1669.19 1406.3 1668.4 1403.88 1666.41 1402.89L1664.69 1402.03C1660.78 1400.07 1662.4 1394.15 1666.77 1394.46L1670.58 1394.73C1672.47 1394.87 1674.2 1393.65 1674.71 1391.82L1676.15 1386.7Z" fill="#F3C9E2"/>
<path d="M427.149 1542.7C428.242 1538.81 433.758 1538.81 434.851 1542.7L436.29 1547.82C436.803 1549.65 438.53 1550.87 440.424 1550.73L444.235 1550.46C448.6 1550.15 450.221 1556.07 446.307 1558.03L444.591 1558.89C442.605 1559.88 441.808 1562.3 442.816 1564.28L444.104 1566.81C446.007 1570.54 441.614 1574.32 438.208 1571.87L433.332 1568.37C431.938 1567.37 430.062 1567.37 428.668 1568.37L423.792 1571.87C420.387 1574.32 415.993 1570.54 417.896 1566.81L419.184 1564.28C420.192 1562.3 419.395 1559.88 417.409 1558.89L415.693 1558.03C411.779 1556.07 413.4 1550.15 417.765 1550.46L421.576 1550.73C423.47 1550.87 425.197 1549.65 425.71 1547.82L427.149 1542.7Z" fill="#F3C9E2"/>
<path d="M584.149 107.703C585.242 103.812 590.758 103.812 591.851 107.703L593.29 112.823C593.803 114.65 595.53 115.865 597.424 115.731L601.235 115.461C605.6 115.151 607.221 121.071 603.307 123.028L601.591 123.886C599.605 124.879 598.808 127.301 599.816 129.28L601.104 131.806C603.007 135.54 598.614 139.316 595.208 136.872L590.332 133.373C588.938 132.373 587.062 132.373 585.668 133.373L580.792 136.872C577.387 139.316 572.993 135.54 574.896 131.806L576.184 129.28C577.192 127.301 576.395 124.879 574.409 123.886L572.693 123.028C568.779 121.071 570.4 115.151 574.765 115.461L578.576 115.731C580.47 115.865 582.197 114.65 582.71 112.823L584.149 107.703Z" fill="#F3C9E2"/>
<path d="M2302.15 109.703C2303.24 105.812 2308.76 105.812 2309.85 109.703L2311.29 114.823C2311.8 116.65 2313.53 117.865 2315.42 117.731L2319.23 117.461C2323.6 117.151 2325.22 123.071 2321.31 125.028L2319.59 125.886C2317.6 126.879 2316.81 129.301 2317.82 131.28L2319.1 133.806C2321.01 137.54 2316.61 141.316 2313.21 138.872L2308.33 135.373C2306.94 134.373 2305.06 134.373 2303.67 135.373L2298.79 138.872C2295.39 141.316 2290.99 137.54 2292.9 133.806L2294.18 131.28C2295.19 129.301 2294.4 126.879 2292.41 125.886L2290.69 125.028C2286.78 123.071 2288.4 117.151 2292.77 117.461L2296.58 117.731C2298.47 117.865 2300.2 116.65 2300.71 114.823L2302.15 109.703Z" fill="#CC448A"/>
<path d="M1842.15 1034.7C1843.24 1030.81 1848.76 1030.81 1849.85 1034.7L1851.29 1039.82C1851.8 1041.65 1853.53 1042.87 1855.42 1042.73L1859.23 1042.46C1863.6 1042.15 1865.22 1048.07 1861.31 1050.03L1859.59 1050.89C1857.6 1051.88 1856.81 1054.3 1857.82 1056.28L1859.1 1058.81C1861.01 1062.54 1856.61 1066.32 1853.21 1063.87L1848.33 1060.37C1846.94 1059.37 1845.06 1059.37 1843.67 1060.37L1838.79 1063.87C1835.39 1066.32 1830.99 1062.54 1832.9 1058.81L1834.18 1056.28C1835.19 1054.3 1834.4 1051.88 1832.41 1050.89L1830.69 1050.03C1826.78 1048.07 1828.4 1042.15 1832.77 1042.46L1836.58 1042.73C1838.47 1042.87 1840.2 1041.65 1840.71 1039.82L1842.15 1034.7Z" fill="#F3C9E2"/>
<path d="M593.149 1190.7C594.242 1186.81 599.758 1186.81 600.851 1190.7L602.29 1195.82C602.803 1197.65 604.53 1198.87 606.424 1198.73L610.235 1198.46C614.6 1198.15 616.221 1204.07 612.307 1206.03L610.591 1206.89C608.605 1207.88 607.808 1210.3 608.816 1212.28L610.104 1214.81C612.007 1218.54 607.614 1222.32 604.208 1219.87L599.332 1216.37C597.938 1215.37 596.062 1215.37 594.668 1216.37L589.792 1219.87C586.387 1222.32 581.993 1218.54 583.896 1214.81L585.184 1212.28C586.192 1210.3 585.395 1207.88 583.409 1206.89L581.693 1206.03C577.779 1204.07 579.4 1198.15 583.765 1198.46L587.576 1198.73C589.47 1198.87 591.197 1197.65 591.71 1195.82L593.149 1190.7Z" fill="#F3C9E2"/>
<path d="M1974.15 796.703C1975.24 792.812 1980.76 792.812 1981.85 796.703L1983.29 801.823C1983.8 803.65 1985.53 804.865 1987.42 804.731L1991.23 804.461C1995.6 804.151 1997.22 810.071 1993.31 812.028L1991.59 812.886C1989.6 813.879 1988.81 816.301 1989.82 818.28L1991.1 820.806C1993.01 824.54 1988.61 828.316 1985.21 825.872L1980.33 822.373C1978.94 821.373 1977.06 821.373 1975.67 822.373L1970.79 825.872C1967.39 828.316 1962.99 824.54 1964.9 820.806L1966.18 818.28C1967.19 816.301 1966.4 813.879 1964.41 812.886L1962.69 812.028C1958.78 810.071 1960.4 804.151 1964.77 804.461L1968.58 804.731C1970.47 804.865 1972.2 803.65 1972.71 801.823L1974.15 796.703Z" fill="#F3C9E2"/>
<path d="M388.149 -7.2972C389.242 -11.1876 394.758 -11.1876 395.851 -7.2972L397.29 -2.17687C397.803 -0.349592 399.53 0.865204 401.424 0.730928L405.235 0.460635C409.6 0.151014 411.221 6.07112 407.307 8.02835L405.591 8.88586C403.605 9.87915 402.808 12.3008 403.816 14.2798L405.104 16.8056C407.007 20.5404 402.614 24.3156 399.208 21.8718L394.332 18.3733C392.938 17.3732 391.062 17.3732 389.668 18.3733L384.792 21.8718C381.387 24.3156 376.993 20.5404 378.896 16.8056L380.184 14.2798C381.192 12.3008 380.395 9.87915 378.409 8.88586L376.693 8.02835C372.779 6.07112 374.4 0.151015 378.765 0.460635L382.576 0.730928C384.47 0.865204 386.197 -0.349589 386.71 -2.17687L388.149 -7.2972Z" fill="#6D6B45"/>
<path d="M25.1492 -3.2972C26.2425 -7.18762 31.7575 -7.18763 32.8508 -3.2972L34.2898 1.82313C34.8033 3.65041 36.5303 4.8652 38.4236 4.73093L42.2347 4.46064C46.6005 4.15101 48.2212 10.0711 44.3065 12.0284L42.5914 12.8859C40.6048 13.8792 39.8078 16.3008 40.8163 18.2798L42.1035 20.8056C44.0069 24.5404 39.6135 28.3156 36.2077 25.8718L31.3319 22.3733C29.9382 21.3732 28.0618 21.3732 26.6681 22.3733L21.7923 25.8718C18.3865 28.3156 13.9931 24.5404 15.8965 20.8056L17.1837 18.2798C18.1922 16.3008 17.3952 13.8792 15.4086 12.8859L13.6935 12.0284C9.77884 10.0711 11.3996 4.15101 15.7653 4.46064L19.5764 4.73093C21.4697 4.8652 23.1967 3.65041 23.7102 1.82313L25.1492 -3.2972Z" fill="#F3C9E2"/>
<path d="M2106.15 -5.2972C2107.24 -9.18762 2112.76 -9.18763 2113.85 -5.2972L2115.29 -0.176874C2115.8 1.65041 2117.53 2.8652 2119.42 2.73093L2123.23 2.46064C2127.6 2.15101 2129.22 8.07112 2125.31 10.0284L2123.59 10.8859C2121.6 11.8792 2120.81 14.3008 2121.82 16.2798L2123.1 18.8056C2125.01 22.5404 2120.61 26.3156 2117.21 23.8718L2112.33 20.3733C2110.94 19.3732 2109.06 19.3732 2107.67 20.3733L2102.79 23.8718C2099.39 26.3156 2094.99 22.5404 2096.9 18.8056L2098.18 16.2798C2099.19 14.3008 2098.4 11.8792 2096.41 10.8859L2094.69 10.0284C2090.78 8.07112 2092.4 2.15101 2096.77 2.46064L2100.58 2.73093C2102.47 2.8652 2104.2 1.65041 2104.71 -0.176871L2106.15 -5.2972Z" fill="#6D6B45"/>
<path d="M397.149 1075.7C398.242 1071.81 403.758 1071.81 404.851 1075.7L406.29 1080.82C406.803 1082.65 408.53 1083.87 410.424 1083.73L414.235 1083.46C418.6 1083.15 420.221 1089.07 416.307 1091.03L414.591 1091.89C412.605 1092.88 411.808 1095.3 412.816 1097.28L414.104 1099.81C416.007 1103.54 411.614 1107.32 408.208 1104.87L403.332 1101.37C401.938 1100.37 400.062 1100.37 398.668 1101.37L393.792 1104.87C390.387 1107.32 385.993 1103.54 387.896 1099.81L389.184 1097.28C390.192 1095.3 389.395 1092.88 387.409 1091.89L385.693 1091.03C381.779 1089.07 383.4 1083.15 387.765 1083.46L391.576 1083.73C393.47 1083.87 395.197 1082.65 395.71 1080.82L397.149 1075.7Z" fill="#6D6B45"/>
<path d="M1274.15 489.703C1275.24 485.812 1280.76 485.812 1281.85 489.703L1283.29 494.823C1283.8 496.65 1285.53 497.865 1287.42 497.731L1291.23 497.461C1295.6 497.151 1297.22 503.071 1293.31 505.028L1291.59 505.886C1289.6 506.879 1288.81 509.301 1289.82 511.28L1291.1 513.806C1293.01 517.54 1288.61 521.316 1285.21 518.872L1280.33 515.373C1278.94 514.373 1277.06 514.373 1275.67 515.373L1270.79 518.872C1267.39 521.316 1262.99 517.54 1264.9 513.806L1266.18 511.28C1267.19 509.301 1266.4 506.879 1264.41 505.886L1262.69 505.028C1258.78 503.071 1260.4 497.151 1264.77 497.461L1268.58 497.731C1270.47 497.865 1272.2 496.65 1272.71 494.823L1274.15 489.703Z" fill="#6D6B45"/>
<path d="M845.149 107.703C846.242 103.812 851.758 103.812 852.851 107.703L854.29 112.823C854.803 114.65 856.53 115.865 858.424 115.731L862.235 115.461C866.6 115.151 868.221 121.071 864.307 123.028L862.591 123.886C860.605 124.879 859.808 127.301 860.816 129.28L862.104 131.806C864.007 135.54 859.614 139.316 856.208 136.872L851.332 133.373C849.938 132.373 848.062 132.373 846.668 133.373L841.792 136.872C838.387 139.316 833.993 135.54 835.896 131.806L837.184 129.28C838.192 127.301 837.395 124.879 835.409 123.886L833.693 123.028C829.779 121.071 831.4 115.151 835.765 115.461L839.576 115.731C841.47 115.865 843.197 114.65 843.71 112.823L845.149 107.703Z" fill="#F3C9E2"/>
<path d="M2563.15 109.703C2564.24 105.812 2569.76 105.812 2570.85 109.703L2572.29 114.823C2572.8 116.65 2574.53 117.865 2576.42 117.731L2580.23 117.461C2584.6 117.151 2586.22 123.071 2582.31 125.028L2580.59 125.886C2578.6 126.879 2577.81 129.301 2578.82 131.28L2580.1 133.806C2582.01 137.54 2577.61 141.316 2574.21 138.872L2569.33 135.373C2567.94 134.373 2566.06 134.373 2564.67 135.373L2559.79 138.872C2556.39 141.316 2551.99 137.54 2553.9 133.806L2555.18 131.28C2556.19 129.301 2555.4 126.879 2553.41 125.886L2551.69 125.028C2547.78 123.071 2549.4 117.151 2553.77 117.461L2557.58 117.731C2559.47 117.865 2561.2 116.65 2561.71 114.823L2563.15 109.703Z" fill="#F3C9E2"/>
<path d="M2103.15 1034.7C2104.24 1030.81 2109.76 1030.81 2110.85 1034.7L2112.29 1039.82C2112.8 1041.65 2114.53 1042.87 2116.42 1042.73L2120.23 1042.46C2124.6 1042.15 2126.22 1048.07 2122.31 1050.03L2120.59 1050.89C2118.6 1051.88 2117.81 1054.3 2118.82 1056.28L2120.1 1058.81C2122.01 1062.54 2117.61 1066.32 2114.21 1063.87L2109.33 1060.37C2107.94 1059.37 2106.06 1059.37 2104.67 1060.37L2099.79 1063.87C2096.39 1066.32 2091.99 1062.54 2093.9 1058.81L2095.18 1056.28C2096.19 1054.3 2095.4 1051.88 2093.41 1050.89L2091.69 1050.03C2087.78 1048.07 2089.4 1042.15 2093.77 1042.46L2097.58 1042.73C2099.47 1042.87 2101.2 1041.65 2101.71 1039.82L2103.15 1034.7Z" fill="#F3C9E2"/>
<path d="M854.149 1190.7C855.242 1186.81 860.758 1186.81 861.851 1190.7L863.29 1195.82C863.803 1197.65 865.53 1198.87 867.424 1198.73L871.235 1198.46C875.6 1198.15 877.221 1204.07 873.307 1206.03L871.591 1206.89C869.605 1207.88 868.808 1210.3 869.816 1212.28L871.104 1214.81C873.007 1218.54 868.614 1222.32 865.208 1219.87L860.332 1216.37C858.938 1215.37 857.062 1215.37 855.668 1216.37L850.792 1219.87C847.387 1222.32 842.993 1218.54 844.896 1214.81L846.184 1212.28C847.192 1210.3 846.395 1207.88 844.409 1206.89L842.693 1206.03C838.779 1204.07 840.4 1198.15 844.765 1198.46L848.576 1198.73C850.47 1198.87 852.197 1197.65 852.71 1195.82L854.149 1190.7Z" fill="#F3C9E2"/>
<path d="M934.149 595.703C935.242 591.812 940.758 591.812 941.851 595.703L943.29 600.823C943.803 602.65 945.53 603.865 947.424 603.731L951.235 603.461C955.6 603.151 957.221 609.071 953.307 611.028L951.591 611.886C949.605 612.879 948.808 615.301 949.816 617.28L951.104 619.806C953.007 623.54 948.614 627.316 945.208 624.872L940.332 621.373C938.938 620.373 937.062 620.373 935.668 621.373L930.792 624.872C927.387 627.316 922.993 623.54 924.896 619.806L926.184 617.28C927.192 615.301 926.395 612.879 924.409 611.886L922.693 611.028C918.779 609.071 920.4 603.151 924.765 603.461L928.576 603.731C930.47 603.865 932.197 602.65 932.71 600.823L934.149 595.703Z" fill="#F3C9E2"/>
<path d="M2652.15 597.703C2653.24 593.812 2658.76 593.812 2659.85 597.703L2661.29 602.823C2661.8 604.65 2663.53 605.865 2665.42 605.731L2669.23 605.461C2673.6 605.151 2675.22 611.071 2671.31 613.028L2669.59 613.886C2667.6 614.879 2666.81 617.301 2667.82 619.28L2669.1 621.806C2671.01 625.54 2666.61 629.316 2663.21 626.872L2658.33 623.373C2656.94 622.373 2655.06 622.373 2653.67 623.373L2648.79 626.872C2645.39 629.316 2640.99 625.54 2642.9 621.806L2644.18 619.28C2645.19 617.301 2644.4 614.879 2642.41 613.886L2640.69 613.028C2636.78 611.071 2638.4 605.151 2642.77 605.461L2646.58 605.731C2648.47 605.865 2650.2 604.65 2650.71 602.823L2652.15 597.703Z" fill="#F3C9E2"/>
<path d="M2192.15 1522.7C2193.24 1518.81 2198.76 1518.81 2199.85 1522.7L2201.29 1527.82C2201.8 1529.65 2203.53 1530.87 2205.42 1530.73L2209.23 1530.46C2213.6 1530.15 2215.22 1536.07 2211.31 1538.03L2209.59 1538.89C2207.6 1539.88 2206.81 1542.3 2207.82 1544.28L2209.1 1546.81C2211.01 1550.54 2206.61 1554.32 2203.21 1551.87L2198.33 1548.37C2196.94 1547.37 2195.06 1547.37 2193.67 1548.37L2188.79 1551.87C2185.39 1554.32 2180.99 1550.54 2182.9 1546.81L2184.18 1544.28C2185.19 1542.3 2184.4 1539.88 2182.41 1538.89L2180.69 1538.03C2176.78 1536.07 2178.4 1530.15 2182.77 1530.46L2186.58 1530.73C2188.47 1530.87 2190.2 1529.65 2190.71 1527.82L2192.15 1522.7Z" fill="#6D6B45"/>
<path d="M2731.15 1454.7C2732.24 1450.81 2737.76 1450.81 2738.85 1454.7L2740.29 1459.82C2740.8 1461.65 2742.53 1462.87 2744.42 1462.73L2748.23 1462.46C2752.6 1462.15 2754.22 1468.07 2750.31 1470.03L2748.59 1470.89C2746.6 1471.88 2745.81 1474.3 2746.82 1476.28L2748.1 1478.81C2750.01 1482.54 2745.61 1486.32 2742.21 1483.87L2737.33 1480.37C2735.94 1479.37 2734.06 1479.37 2732.67 1480.37L2727.79 1483.87C2724.39 1486.32 2719.99 1482.54 2721.9 1478.81L2723.18 1476.28C2724.19 1474.3 2723.4 1471.88 2721.41 1470.89L2719.69 1470.03C2715.78 1468.07 2717.4 1462.15 2721.77 1462.46L2725.58 1462.73C2727.47 1462.87 2729.2 1461.65 2729.71 1459.82L2731.15 1454.7Z" fill="#6D6B45"/>
<path d="M943.149 1678.7C944.242 1674.81 949.758 1674.81 950.851 1678.7L952.29 1683.82C952.803 1685.65 954.53 1686.87 956.424 1686.73L960.235 1686.46C964.6 1686.15 966.221 1692.07 962.307 1694.03L960.591 1694.89C958.605 1695.88 957.808 1698.3 958.816 1700.28L960.104 1702.81C962.007 1706.54 957.614 1710.32 954.208 1707.87L949.332 1704.37C947.938 1703.37 946.062 1703.37 944.668 1704.37L939.792 1707.87C936.387 1710.32 931.993 1706.54 933.896 1702.81L935.184 1700.28C936.192 1698.3 935.395 1695.88 933.409 1694.89L931.693 1694.03C927.779 1692.07 929.4 1686.15 933.765 1686.46L937.576 1686.73C939.47 1686.87 941.197 1685.65 941.71 1683.82L943.149 1678.7Z" fill="#6D6B45"/>
<path d="M1064.15 421.703C1065.24 417.812 1070.76 417.812 1071.85 421.703L1073.29 426.823C1073.8 428.65 1075.53 429.865 1077.42 429.731L1081.23 429.461C1085.6 429.151 1087.22 435.071 1083.31 437.028L1081.59 437.886C1079.6 438.879 1078.81 441.301 1079.82 443.28L1081.1 445.806C1083.01 449.54 1078.61 453.316 1075.21 450.872L1070.33 447.373C1068.94 446.373 1067.06 446.373 1065.67 447.373L1060.79 450.872C1057.39 453.316 1052.99 449.54 1054.9 445.806L1056.18 443.28C1057.19 441.301 1056.4 438.879 1054.41 437.886L1052.69 437.028C1048.78 435.071 1050.4 429.151 1054.77 429.461L1058.58 429.731C1060.47 429.865 1062.2 428.65 1062.71 426.823L1064.15 421.703Z" fill="#F3C9E2"/>
<path d="M1073.15 1504.7C1074.24 1500.81 1079.76 1500.81 1080.85 1504.7L1082.29 1509.82C1082.8 1511.65 1084.53 1512.87 1086.42 1512.73L1090.23 1512.46C1094.6 1512.15 1096.22 1518.07 1092.31 1520.03L1090.59 1520.89C1088.6 1521.88 1087.81 1524.3 1088.82 1526.28L1090.1 1528.81C1092.01 1532.54 1087.61 1536.32 1084.21 1533.87L1079.33 1530.37C1077.94 1529.37 1076.06 1529.37 1074.67 1530.37L1069.79 1533.87C1066.39 1536.32 1061.99 1532.54 1063.9 1528.81L1065.18 1526.28C1066.19 1524.3 1065.4 1521.88 1063.41 1520.89L1061.69 1520.03C1057.78 1518.07 1059.4 1512.15 1063.77 1512.46L1067.58 1512.73C1069.47 1512.87 1071.2 1511.65 1071.71 1509.82L1073.15 1504.7Z" fill="#F3C9E2"/>
<path d="M639.149 718.703C640.242 714.812 645.758 714.812 646.851 718.703L648.29 723.823C648.803 725.65 650.53 726.865 652.424 726.731L656.235 726.461C660.6 726.151 662.221 732.071 658.307 734.028L656.591 734.886C654.605 735.879 653.808 738.301 654.816 740.28L656.104 742.806C658.007 746.54 653.614 750.316 650.208 747.872L645.332 744.373C643.938 743.373 642.062 743.373 640.668 744.373L635.792 747.872C632.387 750.316 627.993 746.54 629.896 742.806L631.184 740.28C632.192 738.301 631.395 735.879 629.409 734.886L627.693 734.028C623.779 732.071 625.4 726.151 629.765 726.461L633.576 726.731C635.47 726.865 637.197 725.65 637.71 723.823L639.149 718.703Z" fill="#F3C9E2"/>
<path d="M2357.15 720.703C2358.24 716.812 2363.76 716.812 2364.85 720.703L2366.29 725.823C2366.8 727.65 2368.53 728.865 2370.42 728.731L2374.23 728.461C2378.6 728.151 2380.22 734.071 2376.31 736.028L2374.59 736.886C2372.6 737.879 2371.81 740.301 2372.82 742.28L2374.1 744.806C2376.01 748.54 2371.61 752.316 2368.21 749.872L2363.33 746.373C2361.94 745.373 2360.06 745.373 2358.67 746.373L2353.79 749.872C2350.39 752.316 2345.99 748.54 2347.9 744.806L2349.18 742.28C2350.19 740.301 2349.4 737.879 2347.41 736.886L2345.69 736.028C2341.78 734.071 2343.4 728.151 2347.77 728.461L2351.58 728.731C2353.47 728.865 2355.2 727.65 2355.71 725.823L2357.15 720.703Z" fill="#F3C9E2"/>
<path d="M1897.15 1645.7C1898.24 1641.81 1903.76 1641.81 1904.85 1645.7L1906.29 1650.82C1906.8 1652.65 1908.53 1653.87 1910.42 1653.73L1914.23 1653.46C1918.6 1653.15 1920.22 1659.07 1916.31 1661.03L1914.59 1661.89C1912.6 1662.88 1911.81 1665.3 1912.82 1667.28L1914.1 1669.81C1916.01 1673.54 1911.61 1677.32 1908.21 1674.87L1903.33 1671.37C1901.94 1670.37 1900.06 1670.37 1898.67 1671.37L1893.79 1674.87C1890.39 1677.32 1885.99 1673.54 1887.9 1669.81L1889.18 1667.28C1890.19 1665.3 1889.4 1662.88 1887.41 1661.89L1885.69 1661.03C1881.78 1659.07 1883.4 1653.15 1887.77 1653.46L1891.58 1653.73C1893.47 1653.87 1895.2 1652.65 1895.71 1650.82L1897.15 1645.7Z" fill="#F3C9E2"/>
<path d="M2436.15 1577.7C2437.24 1573.81 2442.76 1573.81 2443.85 1577.7L2445.29 1582.82C2445.8 1584.65 2447.53 1585.87 2449.42 1585.73L2453.23 1585.46C2457.6 1585.15 2459.22 1591.07 2455.31 1593.03L2453.59 1593.89C2451.6 1594.88 2450.81 1597.3 2451.82 1599.28L2453.1 1601.81C2455.01 1605.54 2450.61 1609.32 2447.21 1606.87L2442.33 1603.37C2440.94 1602.37 2439.06 1602.37 2437.67 1603.37L2432.79 1606.87C2429.39 1609.32 2424.99 1605.54 2426.9 1601.81L2428.18 1599.28C2429.19 1597.3 2428.4 1594.88 2426.41 1593.89L2424.69 1593.03C2420.78 1591.07 2422.4 1585.15 2426.77 1585.46L2430.58 1585.73C2432.47 1585.87 2434.2 1584.65 2434.71 1582.82L2436.15 1577.7Z" fill="#F3C9E2"/>
<path d="M433.149 873.703C434.242 869.812 439.758 869.812 440.851 873.703L442.29 878.823C442.803 880.65 444.53 881.865 446.424 881.731L450.235 881.461C454.6 881.151 456.221 887.071 452.307 889.028L450.591 889.886C448.605 890.879 447.808 893.301 448.816 895.28L450.104 897.806C452.007 901.54 447.614 905.316 444.208 902.872L439.332 899.373C437.938 898.373 436.062 898.373 434.668 899.373L429.792 902.872C426.387 905.316 421.993 901.54 423.896 897.806L425.184 895.28C426.192 893.301 425.395 890.879 423.409 889.886L421.693 889.028C417.779 887.071 419.4 881.151 423.765 881.461L427.576 881.731C429.47 881.865 431.197 880.65 431.71 878.823L433.149 873.703Z" fill="#F3C9E2"/>
<path d="M1310.15 287.703C1311.24 283.812 1316.76 283.812 1317.85 287.703L1319.29 292.823C1319.8 294.65 1321.53 295.865 1323.42 295.731L1327.23 295.461C1331.6 295.151 1333.22 301.071 1329.31 303.028L1327.59 303.886C1325.6 304.879 1324.81 307.301 1325.82 309.28L1327.1 311.806C1329.01 315.54 1324.61 319.316 1321.21 316.872L1316.33 313.373C1314.94 312.373 1313.06 312.373 1311.67 313.373L1306.79 316.872C1303.39 319.316 1298.99 315.54 1300.9 311.806L1302.18 309.28C1303.19 307.301 1302.4 304.879 1300.41 303.886L1298.69 303.028C1294.78 301.071 1296.4 295.151 1300.77 295.461L1304.58 295.731C1306.47 295.865 1308.2 294.65 1308.71 292.823L1310.15 287.703Z" fill="#F3C9E2"/>
<path d="M2151.15 875.703C2152.24 871.812 2157.76 871.812 2158.85 875.703L2160.29 880.823C2160.8 882.65 2162.53 883.865 2164.42 883.731L2168.23 883.461C2172.6 883.151 2174.22 889.071 2170.31 891.028L2168.59 891.886C2166.6 892.879 2165.81 895.301 2166.82 897.28L2168.1 899.806C2170.01 903.54 2165.61 907.316 2162.21 904.872L2157.33 901.373C2155.94 900.373 2154.06 900.373 2152.67 901.373L2147.79 904.872C2144.39 907.316 2139.99 903.54 2141.9 899.806L2143.18 897.28C2144.19 895.301 2143.4 892.879 2141.41 891.886L2139.69 891.028C2135.78 889.071 2137.4 883.151 2141.77 883.461L2145.58 883.731C2147.47 883.865 2149.2 882.65 2149.71 880.823L2151.15 875.703Z" fill="#F3C9E2"/>
</g>
<defs>
<linearGradient id="paint0_linear_172_100" x1="1370" y1="0" x2="1370" y2="1716" gradientUnits="userSpaceOnUse">
<stop stop-color="#FFEFD6"/>
<stop offset="1" stop-color="#FBF0F6"/>
</linearGradient>
<clipPath id="clip0_172_100">
<rect width="2740" height="1716" fill="white"/>
</clipPath>
</defs>
</svg>
